G04 EAGLE Gerber RS-274X export*
G75*
%MOMM*%
%FSLAX34Y34*%
%LPD*%
%INBottom Copper*%
%IPPOS*%
%AMOC8*
5,1,8,0,0,1.08239X$1,22.5*%
G01*
%ADD10P,2.336880X8X202.500000*%
%ADD11P,1.632244X8X22.500000*%
%ADD12C,1.320800*%
%ADD13R,1.500000X1.300000*%
%ADD14P,1.649562X8X202.500000*%
%ADD15R,1.408000X1.408000*%
%ADD16C,1.408000*%
%ADD17C,1.508000*%
%ADD18C,1.524000*%
%ADD19C,0.508000*%
%ADD20C,0.406400*%

G36*
X649374Y5086D02*
X649374Y5086D01*
X649424Y5084D01*
X649546Y5106D01*
X649670Y5121D01*
X649717Y5138D01*
X649767Y5147D01*
X649881Y5196D01*
X649998Y5238D01*
X650040Y5265D01*
X650087Y5286D01*
X650186Y5360D01*
X650291Y5427D01*
X650326Y5463D01*
X650366Y5493D01*
X650447Y5588D01*
X650533Y5678D01*
X650559Y5721D01*
X650591Y5759D01*
X650648Y5870D01*
X650712Y5977D01*
X650727Y6025D01*
X650750Y6070D01*
X650780Y6190D01*
X650818Y6309D01*
X650822Y6359D01*
X650834Y6408D01*
X650836Y6532D01*
X650846Y6656D01*
X650839Y6706D01*
X650839Y6756D01*
X650813Y6878D01*
X650794Y7001D01*
X650776Y7048D01*
X650765Y7097D01*
X650712Y7209D01*
X650666Y7325D01*
X650637Y7366D01*
X650615Y7412D01*
X650538Y7509D01*
X650467Y7611D01*
X650429Y7645D01*
X650398Y7684D01*
X650300Y7761D01*
X650208Y7844D01*
X650164Y7869D01*
X650124Y7900D01*
X649907Y8011D01*
X649025Y8376D01*
X643376Y14025D01*
X640319Y21406D01*
X640319Y29394D01*
X643376Y36775D01*
X649025Y42424D01*
X656406Y45481D01*
X664394Y45481D01*
X671775Y42424D01*
X677424Y36775D01*
X677789Y35893D01*
X677813Y35849D01*
X677830Y35802D01*
X677898Y35697D01*
X677958Y35589D01*
X677992Y35551D01*
X678019Y35509D01*
X678109Y35423D01*
X678192Y35331D01*
X678234Y35302D01*
X678270Y35267D01*
X678377Y35203D01*
X678479Y35132D01*
X678526Y35114D01*
X678569Y35088D01*
X678687Y35050D01*
X678803Y35005D01*
X678853Y34997D01*
X678901Y34982D01*
X679025Y34972D01*
X679148Y34954D01*
X679198Y34958D01*
X679248Y34954D01*
X679371Y34972D01*
X679495Y34983D01*
X679543Y34998D01*
X679593Y35006D01*
X679709Y35052D01*
X679827Y35090D01*
X679870Y35116D01*
X679917Y35134D01*
X680019Y35205D01*
X680125Y35269D01*
X680162Y35305D01*
X680203Y35333D01*
X680286Y35426D01*
X680375Y35512D01*
X680403Y35555D01*
X680436Y35592D01*
X680497Y35701D01*
X680564Y35806D01*
X680580Y35853D01*
X680605Y35897D01*
X680639Y36017D01*
X680680Y36134D01*
X680686Y36184D01*
X680700Y36232D01*
X680719Y36476D01*
X680719Y287374D01*
X680714Y287424D01*
X680716Y287474D01*
X680694Y287596D01*
X680679Y287720D01*
X680662Y287767D01*
X680653Y287817D01*
X680604Y287931D01*
X680562Y288048D01*
X680535Y288090D01*
X680514Y288137D01*
X680440Y288236D01*
X680373Y288341D01*
X680337Y288376D01*
X680307Y288416D01*
X680212Y288497D01*
X680122Y288583D01*
X680079Y288609D01*
X680041Y288641D01*
X679930Y288698D01*
X679823Y288762D01*
X679775Y288777D01*
X679730Y288800D01*
X679610Y288830D01*
X679491Y288868D01*
X679441Y288872D01*
X679392Y288884D01*
X679268Y288886D01*
X679144Y288896D01*
X679094Y288889D01*
X679044Y288889D01*
X678922Y288863D01*
X678799Y288844D01*
X678752Y288826D01*
X678703Y288815D01*
X678591Y288762D01*
X678475Y288716D01*
X678434Y288687D01*
X678388Y288665D01*
X678291Y288588D01*
X678189Y288517D01*
X678155Y288479D01*
X678116Y288448D01*
X678039Y288350D01*
X677956Y288258D01*
X677931Y288214D01*
X677900Y288174D01*
X677789Y287957D01*
X677424Y287075D01*
X671775Y281426D01*
X664394Y278369D01*
X656406Y278369D01*
X649025Y281426D01*
X643376Y287075D01*
X640319Y294456D01*
X640319Y302444D01*
X643376Y309825D01*
X649025Y315474D01*
X649907Y315839D01*
X649951Y315863D01*
X649998Y315880D01*
X650103Y315948D01*
X650211Y316008D01*
X650249Y316042D01*
X650291Y316069D01*
X650377Y316159D01*
X650469Y316242D01*
X650498Y316284D01*
X650533Y316320D01*
X650597Y316427D01*
X650668Y316529D01*
X650686Y316576D01*
X650712Y316619D01*
X650750Y316737D01*
X650795Y316853D01*
X650803Y316903D01*
X650818Y316951D01*
X650828Y317075D01*
X650846Y317198D01*
X650842Y317248D01*
X650846Y317298D01*
X650828Y317421D01*
X650817Y317545D01*
X650802Y317593D01*
X650794Y317643D01*
X650748Y317759D01*
X650710Y317877D01*
X650684Y317920D01*
X650666Y317967D01*
X650595Y318069D01*
X650531Y318175D01*
X650495Y318212D01*
X650467Y318253D01*
X650374Y318336D01*
X650288Y318425D01*
X650245Y318453D01*
X650208Y318486D01*
X650099Y318547D01*
X649994Y318614D01*
X649947Y318630D01*
X649903Y318655D01*
X649783Y318689D01*
X649666Y318730D01*
X649616Y318736D01*
X649568Y318750D01*
X649324Y318769D01*
X36476Y318769D01*
X36426Y318764D01*
X36376Y318766D01*
X36254Y318744D01*
X36130Y318729D01*
X36083Y318712D01*
X36033Y318703D01*
X35919Y318654D01*
X35802Y318612D01*
X35760Y318585D01*
X35713Y318564D01*
X35614Y318490D01*
X35509Y318423D01*
X35474Y318387D01*
X35434Y318357D01*
X35353Y318262D01*
X35267Y318172D01*
X35241Y318129D01*
X35209Y318091D01*
X35152Y317980D01*
X35088Y317873D01*
X35073Y317825D01*
X35050Y317780D01*
X35020Y317660D01*
X34982Y317541D01*
X34978Y317491D01*
X34966Y317442D01*
X34964Y317318D01*
X34954Y317194D01*
X34961Y317144D01*
X34961Y317094D01*
X34987Y316972D01*
X35006Y316849D01*
X35024Y316802D01*
X35035Y316753D01*
X35088Y316641D01*
X35134Y316525D01*
X35163Y316484D01*
X35185Y316438D01*
X35262Y316341D01*
X35333Y316239D01*
X35371Y316205D01*
X35402Y316166D01*
X35500Y316089D01*
X35592Y316006D01*
X35636Y315981D01*
X35676Y315950D01*
X35893Y315839D01*
X36775Y315474D01*
X42424Y309825D01*
X45481Y302444D01*
X45481Y294456D01*
X42424Y287075D01*
X36775Y281426D01*
X29394Y278369D01*
X21406Y278369D01*
X14025Y281426D01*
X8376Y287075D01*
X8011Y287957D01*
X7987Y288001D01*
X7970Y288048D01*
X7902Y288153D01*
X7842Y288261D01*
X7808Y288299D01*
X7781Y288341D01*
X7691Y288427D01*
X7608Y288519D01*
X7566Y288548D01*
X7530Y288583D01*
X7423Y288647D01*
X7321Y288718D01*
X7274Y288736D01*
X7231Y288762D01*
X7113Y288800D01*
X6997Y288845D01*
X6947Y288853D01*
X6899Y288868D01*
X6775Y288878D01*
X6652Y288896D01*
X6602Y288892D01*
X6552Y288896D01*
X6429Y288878D01*
X6305Y288867D01*
X6257Y288852D01*
X6207Y288844D01*
X6091Y288798D01*
X5973Y288760D01*
X5930Y288734D01*
X5883Y288716D01*
X5781Y288645D01*
X5675Y288581D01*
X5638Y288545D01*
X5597Y288517D01*
X5514Y288424D01*
X5425Y288338D01*
X5397Y288295D01*
X5364Y288258D01*
X5303Y288149D01*
X5236Y288044D01*
X5220Y287997D01*
X5195Y287953D01*
X5161Y287833D01*
X5120Y287716D01*
X5114Y287666D01*
X5100Y287618D01*
X5081Y287374D01*
X5081Y36476D01*
X5086Y36426D01*
X5084Y36376D01*
X5106Y36254D01*
X5121Y36130D01*
X5138Y36083D01*
X5147Y36033D01*
X5196Y35919D01*
X5238Y35802D01*
X5265Y35760D01*
X5286Y35713D01*
X5360Y35614D01*
X5427Y35509D01*
X5463Y35474D01*
X5493Y35434D01*
X5588Y35353D01*
X5678Y35267D01*
X5721Y35241D01*
X5759Y35209D01*
X5870Y35152D01*
X5977Y35088D01*
X6025Y35073D01*
X6070Y35050D01*
X6190Y35020D01*
X6309Y34982D01*
X6359Y34978D01*
X6408Y34966D01*
X6532Y34964D01*
X6656Y34954D01*
X6706Y34961D01*
X6756Y34961D01*
X6878Y34987D01*
X7001Y35006D01*
X7048Y35024D01*
X7097Y35035D01*
X7209Y35088D01*
X7325Y35134D01*
X7366Y35163D01*
X7412Y35185D01*
X7509Y35262D01*
X7611Y35333D01*
X7645Y35371D01*
X7684Y35402D01*
X7761Y35500D01*
X7844Y35592D01*
X7869Y35636D01*
X7900Y35676D01*
X8011Y35893D01*
X8376Y36775D01*
X14025Y42424D01*
X21406Y45481D01*
X29394Y45481D01*
X36775Y42424D01*
X42424Y36775D01*
X45481Y29394D01*
X45481Y21406D01*
X42424Y14025D01*
X36775Y8376D01*
X35893Y8011D01*
X35849Y7987D01*
X35802Y7970D01*
X35697Y7902D01*
X35589Y7842D01*
X35551Y7808D01*
X35509Y7781D01*
X35423Y7691D01*
X35331Y7608D01*
X35302Y7566D01*
X35267Y7530D01*
X35203Y7423D01*
X35132Y7321D01*
X35114Y7274D01*
X35088Y7231D01*
X35050Y7113D01*
X35005Y6997D01*
X34997Y6947D01*
X34982Y6899D01*
X34972Y6775D01*
X34954Y6652D01*
X34958Y6602D01*
X34954Y6552D01*
X34972Y6429D01*
X34983Y6305D01*
X34998Y6257D01*
X35006Y6207D01*
X35052Y6091D01*
X35090Y5973D01*
X35116Y5930D01*
X35134Y5883D01*
X35205Y5781D01*
X35269Y5675D01*
X35305Y5638D01*
X35333Y5597D01*
X35426Y5514D01*
X35512Y5425D01*
X35555Y5397D01*
X35592Y5364D01*
X35701Y5303D01*
X35806Y5236D01*
X35853Y5220D01*
X35897Y5195D01*
X36017Y5161D01*
X36134Y5120D01*
X36184Y5114D01*
X36232Y5100D01*
X36476Y5081D01*
X649324Y5081D01*
X649374Y5086D01*
G37*
%LPC*%
G36*
X308061Y9905D02*
X308061Y9905D01*
X304700Y11298D01*
X302127Y13870D01*
X302055Y14045D01*
X302018Y14112D01*
X301990Y14183D01*
X301933Y14264D01*
X301886Y14350D01*
X301834Y14406D01*
X301791Y14469D01*
X301718Y14535D01*
X301652Y14608D01*
X301589Y14651D01*
X301532Y14702D01*
X301446Y14750D01*
X301365Y14806D01*
X301294Y14834D01*
X301227Y14871D01*
X301132Y14898D01*
X301041Y14934D01*
X300965Y14945D01*
X300891Y14966D01*
X300743Y14978D01*
X300696Y14985D01*
X300677Y14983D01*
X300648Y14985D01*
X99916Y14985D01*
X40385Y74516D01*
X40385Y249334D01*
X80866Y289815D01*
X92214Y289815D01*
X92340Y289829D01*
X92466Y289836D01*
X92513Y289849D01*
X92561Y289855D01*
X92680Y289897D01*
X92801Y289932D01*
X92843Y289956D01*
X92889Y289972D01*
X92995Y290041D01*
X93105Y290102D01*
X93151Y290142D01*
X93181Y290161D01*
X93215Y290196D01*
X93291Y290261D01*
X97845Y294815D01*
X105355Y294815D01*
X109909Y290261D01*
X110008Y290182D01*
X110101Y290098D01*
X110144Y290074D01*
X110182Y290044D01*
X110296Y289990D01*
X110406Y289929D01*
X110453Y289916D01*
X110497Y289895D01*
X110620Y289869D01*
X110742Y289834D01*
X110803Y289829D01*
X110837Y289822D01*
X110885Y289823D01*
X110986Y289815D01*
X117614Y289815D01*
X117740Y289829D01*
X117866Y289836D01*
X117913Y289849D01*
X117961Y289855D01*
X118080Y289897D01*
X118201Y289932D01*
X118243Y289956D01*
X118289Y289972D01*
X118395Y290041D01*
X118505Y290102D01*
X118551Y290142D01*
X118581Y290161D01*
X118615Y290196D01*
X118691Y290261D01*
X123245Y294815D01*
X130755Y294815D01*
X136065Y289505D01*
X136065Y281995D01*
X130755Y276685D01*
X123245Y276685D01*
X118691Y281239D01*
X118592Y281318D01*
X118499Y281402D01*
X118456Y281426D01*
X118418Y281456D01*
X118304Y281510D01*
X118194Y281571D01*
X118147Y281584D01*
X118103Y281605D01*
X117980Y281631D01*
X117858Y281666D01*
X117797Y281671D01*
X117763Y281678D01*
X117715Y281677D01*
X117614Y281685D01*
X110986Y281685D01*
X110860Y281671D01*
X110734Y281664D01*
X110687Y281651D01*
X110639Y281645D01*
X110520Y281603D01*
X110399Y281568D01*
X110357Y281544D01*
X110311Y281528D01*
X110205Y281459D01*
X110095Y281398D01*
X110049Y281358D01*
X110019Y281339D01*
X109985Y281304D01*
X109909Y281239D01*
X105355Y276685D01*
X97845Y276685D01*
X93291Y281239D01*
X93192Y281318D01*
X93099Y281402D01*
X93056Y281426D01*
X93018Y281456D01*
X92904Y281510D01*
X92794Y281571D01*
X92747Y281584D01*
X92703Y281605D01*
X92580Y281631D01*
X92458Y281666D01*
X92397Y281671D01*
X92363Y281678D01*
X92315Y281677D01*
X92214Y281685D01*
X84865Y281685D01*
X84739Y281671D01*
X84613Y281664D01*
X84566Y281651D01*
X84518Y281645D01*
X84399Y281603D01*
X84278Y281568D01*
X84236Y281544D01*
X84190Y281528D01*
X84084Y281459D01*
X83974Y281398D01*
X83928Y281358D01*
X83898Y281339D01*
X83864Y281304D01*
X83788Y281239D01*
X48961Y246412D01*
X48882Y246313D01*
X48798Y246220D01*
X48774Y246177D01*
X48744Y246139D01*
X48690Y246025D01*
X48629Y245915D01*
X48616Y245868D01*
X48595Y245824D01*
X48569Y245701D01*
X48534Y245579D01*
X48529Y245518D01*
X48522Y245484D01*
X48523Y245436D01*
X48515Y245335D01*
X48515Y78515D01*
X48529Y78389D01*
X48536Y78263D01*
X48549Y78216D01*
X48555Y78168D01*
X48597Y78049D01*
X48632Y77928D01*
X48656Y77886D01*
X48672Y77840D01*
X48741Y77734D01*
X48802Y77624D01*
X48842Y77578D01*
X48861Y77548D01*
X48896Y77514D01*
X48961Y77438D01*
X102838Y23561D01*
X102937Y23482D01*
X103030Y23398D01*
X103073Y23374D01*
X103111Y23344D01*
X103225Y23290D01*
X103335Y23229D01*
X103382Y23216D01*
X103426Y23195D01*
X103549Y23169D01*
X103671Y23134D01*
X103732Y23129D01*
X103766Y23122D01*
X103814Y23123D01*
X103915Y23115D01*
X300648Y23115D01*
X300724Y23123D01*
X300800Y23122D01*
X300896Y23143D01*
X300994Y23155D01*
X301066Y23180D01*
X301141Y23197D01*
X301229Y23239D01*
X301322Y23272D01*
X301386Y23314D01*
X301455Y23346D01*
X301532Y23408D01*
X301615Y23461D01*
X301668Y23516D01*
X301728Y23564D01*
X301789Y23641D01*
X301857Y23712D01*
X301896Y23777D01*
X301944Y23837D01*
X302012Y23970D01*
X302036Y24011D01*
X302042Y24029D01*
X302055Y24055D01*
X302127Y24230D01*
X304700Y26802D01*
X308061Y28195D01*
X326939Y28195D01*
X330300Y26802D01*
X332873Y24230D01*
X332945Y24055D01*
X332982Y23988D01*
X333010Y23917D01*
X333067Y23836D01*
X333114Y23750D01*
X333166Y23694D01*
X333209Y23631D01*
X333282Y23565D01*
X333348Y23492D01*
X333411Y23449D01*
X333468Y23398D01*
X333554Y23350D01*
X333635Y23294D01*
X333706Y23266D01*
X333773Y23229D01*
X333868Y23202D01*
X333959Y23166D01*
X334035Y23155D01*
X334109Y23134D01*
X334257Y23122D01*
X334304Y23115D01*
X334323Y23117D01*
X334352Y23115D01*
X503848Y23115D01*
X503924Y23123D01*
X504000Y23122D01*
X504096Y23143D01*
X504194Y23155D01*
X504266Y23180D01*
X504341Y23197D01*
X504429Y23239D01*
X504522Y23272D01*
X504586Y23314D01*
X504655Y23346D01*
X504732Y23408D01*
X504815Y23461D01*
X504868Y23516D01*
X504928Y23564D01*
X504989Y23641D01*
X505057Y23712D01*
X505096Y23777D01*
X505144Y23837D01*
X505212Y23970D01*
X505236Y24011D01*
X505242Y24029D01*
X505255Y24055D01*
X505327Y24230D01*
X507900Y26802D01*
X511261Y28195D01*
X530139Y28195D01*
X533500Y26802D01*
X536072Y24230D01*
X537465Y20869D01*
X537465Y17231D01*
X536072Y13870D01*
X533500Y11298D01*
X530139Y9905D01*
X511261Y9905D01*
X507900Y11298D01*
X505327Y13870D01*
X505255Y14045D01*
X505218Y14112D01*
X505190Y14183D01*
X505133Y14264D01*
X505086Y14350D01*
X505034Y14406D01*
X504991Y14469D01*
X504918Y14535D01*
X504852Y14608D01*
X504789Y14651D01*
X504732Y14702D01*
X504646Y14750D01*
X504565Y14806D01*
X504494Y14834D01*
X504427Y14871D01*
X504332Y14898D01*
X504241Y14934D01*
X504165Y14945D01*
X504091Y14966D01*
X503943Y14978D01*
X503896Y14985D01*
X503877Y14983D01*
X503848Y14985D01*
X334352Y14985D01*
X334276Y14977D01*
X334200Y14978D01*
X334104Y14957D01*
X334006Y14945D01*
X333934Y14920D01*
X333859Y14903D01*
X333771Y14861D01*
X333678Y14828D01*
X333614Y14786D01*
X333545Y14754D01*
X333468Y14692D01*
X333385Y14639D01*
X333332Y14584D01*
X333272Y14536D01*
X333211Y14459D01*
X333143Y14388D01*
X333104Y14323D01*
X333056Y14263D01*
X332988Y14130D01*
X332964Y14089D01*
X332958Y14071D01*
X332945Y14045D01*
X332873Y13870D01*
X330300Y11298D01*
X326939Y9905D01*
X308061Y9905D01*
G37*
%LPD*%
%LPC*%
G36*
X112616Y34035D02*
X112616Y34035D01*
X59435Y87216D01*
X59435Y92101D01*
X59421Y92227D01*
X59414Y92353D01*
X59401Y92399D01*
X59395Y92447D01*
X59353Y92566D01*
X59318Y92688D01*
X59294Y92730D01*
X59278Y92775D01*
X59209Y92882D01*
X59148Y92992D01*
X59108Y93038D01*
X59089Y93068D01*
X59054Y93102D01*
X58989Y93178D01*
X54355Y97812D01*
X54355Y105388D01*
X58989Y110022D01*
X59068Y110121D01*
X59152Y110215D01*
X59176Y110257D01*
X59206Y110295D01*
X59260Y110409D01*
X59321Y110520D01*
X59334Y110566D01*
X59355Y110610D01*
X59381Y110733D01*
X59416Y110855D01*
X59421Y110916D01*
X59428Y110951D01*
X59427Y110999D01*
X59435Y111099D01*
X59435Y236634D01*
X87216Y264415D01*
X92214Y264415D01*
X92340Y264429D01*
X92466Y264436D01*
X92513Y264449D01*
X92561Y264455D01*
X92680Y264497D01*
X92801Y264532D01*
X92843Y264556D01*
X92889Y264572D01*
X92995Y264641D01*
X93105Y264702D01*
X93151Y264742D01*
X93181Y264761D01*
X93215Y264796D01*
X93291Y264861D01*
X97845Y269415D01*
X105355Y269415D01*
X110665Y264105D01*
X110665Y256595D01*
X105355Y251285D01*
X97845Y251285D01*
X93291Y255839D01*
X93192Y255918D01*
X93099Y256002D01*
X93056Y256026D01*
X93018Y256056D01*
X92904Y256110D01*
X92794Y256171D01*
X92747Y256184D01*
X92703Y256205D01*
X92580Y256231D01*
X92458Y256266D01*
X92397Y256271D01*
X92363Y256278D01*
X92315Y256277D01*
X92214Y256285D01*
X91215Y256285D01*
X91089Y256271D01*
X90963Y256264D01*
X90916Y256251D01*
X90868Y256245D01*
X90749Y256203D01*
X90628Y256168D01*
X90586Y256144D01*
X90540Y256128D01*
X90434Y256059D01*
X90324Y255998D01*
X90278Y255958D01*
X90248Y255939D01*
X90214Y255904D01*
X90138Y255839D01*
X68011Y233712D01*
X67932Y233613D01*
X67848Y233520D01*
X67824Y233477D01*
X67794Y233439D01*
X67740Y233325D01*
X67679Y233215D01*
X67666Y233168D01*
X67645Y233124D01*
X67619Y233001D01*
X67584Y232879D01*
X67579Y232818D01*
X67572Y232784D01*
X67573Y232736D01*
X67565Y232635D01*
X67565Y111099D01*
X67579Y110973D01*
X67586Y110847D01*
X67599Y110801D01*
X67605Y110753D01*
X67647Y110634D01*
X67682Y110512D01*
X67706Y110470D01*
X67722Y110425D01*
X67791Y110318D01*
X67852Y110208D01*
X67892Y110162D01*
X67911Y110132D01*
X67946Y110098D01*
X68011Y110022D01*
X72645Y105388D01*
X72645Y97812D01*
X68011Y93178D01*
X67932Y93079D01*
X67848Y92985D01*
X67824Y92943D01*
X67794Y92905D01*
X67740Y92791D01*
X67679Y92680D01*
X67666Y92634D01*
X67645Y92590D01*
X67619Y92467D01*
X67584Y92345D01*
X67579Y92284D01*
X67572Y92249D01*
X67573Y92201D01*
X67565Y92101D01*
X67565Y91215D01*
X67579Y91089D01*
X67586Y90963D01*
X67599Y90916D01*
X67605Y90868D01*
X67647Y90749D01*
X67682Y90628D01*
X67706Y90586D01*
X67722Y90540D01*
X67791Y90434D01*
X67852Y90324D01*
X67892Y90278D01*
X67911Y90248D01*
X67946Y90214D01*
X68011Y90138D01*
X115538Y42611D01*
X115637Y42532D01*
X115730Y42448D01*
X115773Y42424D01*
X115811Y42394D01*
X115925Y42340D01*
X116035Y42279D01*
X116082Y42266D01*
X116126Y42245D01*
X116249Y42219D01*
X116371Y42184D01*
X116432Y42179D01*
X116466Y42172D01*
X116514Y42173D01*
X116615Y42165D01*
X175485Y42165D01*
X175611Y42179D01*
X175737Y42186D01*
X175784Y42199D01*
X175832Y42205D01*
X175951Y42247D01*
X176072Y42282D01*
X176114Y42306D01*
X176160Y42322D01*
X176266Y42391D01*
X176376Y42452D01*
X176422Y42492D01*
X176452Y42511D01*
X176486Y42546D01*
X176562Y42611D01*
X300289Y166338D01*
X300368Y166437D01*
X300452Y166530D01*
X300476Y166573D01*
X300506Y166611D01*
X300560Y166725D01*
X300621Y166835D01*
X300634Y166882D01*
X300655Y166926D01*
X300681Y167049D01*
X300716Y167171D01*
X300721Y167232D01*
X300728Y167266D01*
X300727Y167314D01*
X300735Y167415D01*
X300735Y250964D01*
X300721Y251090D01*
X300714Y251216D01*
X300701Y251263D01*
X300695Y251311D01*
X300653Y251429D01*
X300618Y251551D01*
X300594Y251593D01*
X300578Y251639D01*
X300509Y251745D01*
X300448Y251855D01*
X300408Y251901D01*
X300389Y251931D01*
X300354Y251965D01*
X300289Y252041D01*
X295735Y256595D01*
X295735Y264105D01*
X301045Y269415D01*
X308555Y269415D01*
X313865Y264105D01*
X313865Y256595D01*
X309311Y252041D01*
X309232Y251942D01*
X309148Y251849D01*
X309124Y251806D01*
X309094Y251768D01*
X309040Y251654D01*
X308979Y251544D01*
X308966Y251497D01*
X308945Y251453D01*
X308919Y251330D01*
X308884Y251208D01*
X308879Y251147D01*
X308872Y251113D01*
X308873Y251065D01*
X308865Y250964D01*
X308865Y163416D01*
X179484Y34035D01*
X112616Y34035D01*
G37*
%LPD*%
%LPC*%
G36*
X413419Y144271D02*
X413419Y144271D01*
X410431Y145509D01*
X408145Y147795D01*
X406907Y150783D01*
X406907Y154017D01*
X408145Y157005D01*
X410431Y159291D01*
X413419Y160529D01*
X429861Y160529D01*
X432849Y159291D01*
X435349Y156790D01*
X435364Y156779D01*
X435389Y156749D01*
X435409Y156735D01*
X435425Y156717D01*
X435549Y156631D01*
X435567Y156618D01*
X435622Y156574D01*
X435634Y156568D01*
X435669Y156542D01*
X435692Y156533D01*
X435712Y156519D01*
X435852Y156463D01*
X435898Y156444D01*
X435938Y156425D01*
X435945Y156423D01*
X435989Y156404D01*
X436013Y156400D01*
X436036Y156391D01*
X436184Y156369D01*
X436257Y156356D01*
X436278Y156351D01*
X436282Y156351D01*
X436332Y156342D01*
X436357Y156344D01*
X436381Y156340D01*
X436531Y156353D01*
X436620Y156357D01*
X436627Y156357D01*
X436628Y156358D01*
X436680Y156360D01*
X436704Y156367D01*
X436728Y156369D01*
X436871Y156415D01*
X437015Y156457D01*
X437037Y156469D01*
X437060Y156476D01*
X437188Y156554D01*
X437319Y156627D01*
X437342Y156646D01*
X437358Y156656D01*
X437392Y156689D01*
X437506Y156786D01*
X440497Y159777D01*
X440576Y159876D01*
X440660Y159970D01*
X440684Y160012D01*
X440714Y160050D01*
X440768Y160164D01*
X440829Y160275D01*
X440842Y160322D01*
X440863Y160365D01*
X440889Y160489D01*
X440924Y160610D01*
X440929Y160671D01*
X440936Y160706D01*
X440935Y160754D01*
X440943Y160854D01*
X440943Y190502D01*
X440940Y190528D01*
X440942Y190554D01*
X440920Y190701D01*
X440903Y190848D01*
X440895Y190873D01*
X440891Y190899D01*
X440836Y191037D01*
X440786Y191176D01*
X440772Y191198D01*
X440762Y191223D01*
X440677Y191344D01*
X440597Y191469D01*
X440578Y191487D01*
X440563Y191509D01*
X440453Y191608D01*
X440346Y191711D01*
X440324Y191725D01*
X440304Y191742D01*
X440174Y191814D01*
X440047Y191890D01*
X440022Y191898D01*
X439999Y191911D01*
X439856Y191951D01*
X439715Y191996D01*
X439689Y191998D01*
X439664Y192006D01*
X439420Y192025D01*
X436368Y192025D01*
X435475Y192918D01*
X435475Y207182D01*
X436767Y208473D01*
X436783Y208493D01*
X436803Y208510D01*
X436891Y208630D01*
X436983Y208746D01*
X436994Y208770D01*
X437010Y208791D01*
X437069Y208927D01*
X437132Y209061D01*
X437138Y209087D01*
X437148Y209111D01*
X437174Y209257D01*
X437206Y209402D01*
X437205Y209428D01*
X437210Y209454D01*
X437202Y209602D01*
X437200Y209750D01*
X437193Y209776D01*
X437192Y209802D01*
X437151Y209944D01*
X437115Y210088D01*
X437103Y210111D01*
X437095Y210137D01*
X437023Y210266D01*
X436955Y210398D01*
X436938Y210418D01*
X436925Y210441D01*
X436767Y210627D01*
X435475Y211918D01*
X435475Y226182D01*
X436368Y227075D01*
X439420Y227075D01*
X439446Y227078D01*
X439472Y227076D01*
X439619Y227098D01*
X439766Y227115D01*
X439791Y227123D01*
X439817Y227127D01*
X439955Y227182D01*
X440094Y227232D01*
X440116Y227246D01*
X440141Y227256D01*
X440262Y227341D01*
X440387Y227421D01*
X440405Y227440D01*
X440427Y227455D01*
X440526Y227565D01*
X440629Y227672D01*
X440643Y227694D01*
X440660Y227714D01*
X440732Y227844D01*
X440808Y227971D01*
X440816Y227996D01*
X440829Y228019D01*
X440869Y228162D01*
X440914Y228303D01*
X440916Y228329D01*
X440924Y228354D01*
X440943Y228598D01*
X440943Y235153D01*
X451927Y246137D01*
X454475Y248685D01*
X454537Y248763D01*
X454607Y248836D01*
X454645Y248900D01*
X454692Y248958D01*
X454734Y249049D01*
X454786Y249135D01*
X454809Y249206D01*
X454840Y249273D01*
X454862Y249371D01*
X454892Y249467D01*
X454898Y249541D01*
X454914Y249614D01*
X454912Y249714D01*
X454920Y249814D01*
X454909Y249888D01*
X454908Y249962D01*
X454883Y250059D01*
X454869Y250159D01*
X454841Y250228D01*
X454823Y250300D01*
X454777Y250389D01*
X454740Y250483D01*
X454697Y250544D01*
X454663Y250610D01*
X454598Y250686D01*
X454541Y250769D01*
X454486Y250819D01*
X454437Y250875D01*
X454357Y250935D01*
X454282Y251002D01*
X454217Y251038D01*
X454157Y251083D01*
X454065Y251122D01*
X453977Y251171D01*
X453905Y251191D01*
X453837Y251221D01*
X453738Y251238D01*
X453642Y251266D01*
X453542Y251274D01*
X453494Y251282D01*
X453458Y251280D01*
X453449Y251281D01*
X448135Y256595D01*
X448135Y264105D01*
X453445Y269415D01*
X460955Y269415D01*
X466265Y264105D01*
X466265Y256595D01*
X460937Y251267D01*
X460874Y251189D01*
X460804Y251116D01*
X460766Y251052D01*
X460720Y250994D01*
X460677Y250903D01*
X460625Y250817D01*
X460603Y250746D01*
X460571Y250679D01*
X460550Y250581D01*
X460519Y250485D01*
X460513Y250411D01*
X460498Y250338D01*
X460499Y250238D01*
X460491Y250138D01*
X460502Y250064D01*
X460504Y249990D01*
X460528Y249893D01*
X460543Y249793D01*
X460570Y249724D01*
X460589Y249652D01*
X460635Y249562D01*
X460672Y249469D01*
X460714Y249408D01*
X460748Y249342D01*
X460813Y249265D01*
X460871Y249183D01*
X460926Y249133D01*
X460974Y249077D01*
X461055Y249017D01*
X461129Y248950D01*
X461194Y248914D01*
X461254Y248869D01*
X461347Y248830D01*
X461434Y248781D01*
X461506Y248761D01*
X461574Y248731D01*
X461673Y248714D01*
X461770Y248686D01*
X461870Y248678D01*
X461917Y248670D01*
X461953Y248672D01*
X462014Y248667D01*
X477786Y248667D01*
X477886Y248678D01*
X477987Y248680D01*
X478059Y248698D01*
X478133Y248707D01*
X478227Y248740D01*
X478325Y248765D01*
X478391Y248799D01*
X478461Y248824D01*
X478545Y248879D01*
X478634Y248925D01*
X478691Y248973D01*
X478754Y249013D01*
X478823Y249085D01*
X478900Y249150D01*
X478944Y249210D01*
X478996Y249264D01*
X479047Y249350D01*
X479107Y249431D01*
X479136Y249499D01*
X479175Y249563D01*
X479205Y249659D01*
X479245Y249751D01*
X479258Y249824D01*
X479281Y249895D01*
X479289Y249995D01*
X479307Y250094D01*
X479303Y250168D01*
X479309Y250242D01*
X479294Y250342D01*
X479289Y250442D01*
X479268Y250513D01*
X479257Y250587D01*
X479220Y250680D01*
X479192Y250777D01*
X479156Y250842D01*
X479128Y250911D01*
X479071Y250993D01*
X479022Y251081D01*
X478957Y251157D01*
X478929Y251197D01*
X478903Y251221D01*
X478863Y251267D01*
X473535Y256595D01*
X473535Y264105D01*
X478845Y269415D01*
X486355Y269415D01*
X491665Y264105D01*
X491665Y256595D01*
X486337Y251267D01*
X486274Y251189D01*
X486204Y251116D01*
X486166Y251052D01*
X486120Y250994D01*
X486077Y250903D01*
X486025Y250817D01*
X486003Y250746D01*
X485971Y250679D01*
X485950Y250581D01*
X485919Y250485D01*
X485913Y250411D01*
X485898Y250338D01*
X485899Y250238D01*
X485891Y250138D01*
X485902Y250064D01*
X485904Y249990D01*
X485928Y249893D01*
X485943Y249793D01*
X485970Y249724D01*
X485989Y249652D01*
X486035Y249562D01*
X486072Y249469D01*
X486114Y249408D01*
X486148Y249342D01*
X486213Y249265D01*
X486271Y249183D01*
X486326Y249133D01*
X486374Y249077D01*
X486455Y249017D01*
X486529Y248950D01*
X486594Y248914D01*
X486654Y248869D01*
X486747Y248830D01*
X486834Y248781D01*
X486906Y248761D01*
X486974Y248731D01*
X487073Y248714D01*
X487170Y248686D01*
X487270Y248678D01*
X487317Y248670D01*
X487353Y248672D01*
X487414Y248667D01*
X500816Y248667D01*
X500941Y248681D01*
X501068Y248688D01*
X501114Y248701D01*
X501162Y248707D01*
X501281Y248749D01*
X501402Y248784D01*
X501445Y248808D01*
X501490Y248824D01*
X501596Y248893D01*
X501707Y248954D01*
X501753Y248994D01*
X501783Y249013D01*
X501816Y249048D01*
X501893Y249113D01*
X503078Y250298D01*
X503095Y250319D01*
X503114Y250336D01*
X503203Y250455D01*
X503295Y250571D01*
X503306Y250595D01*
X503322Y250616D01*
X503380Y250752D01*
X503444Y250886D01*
X503449Y250912D01*
X503460Y250936D01*
X503486Y251082D01*
X503517Y251227D01*
X503517Y251253D01*
X503521Y251279D01*
X503514Y251428D01*
X503511Y251575D01*
X503505Y251601D01*
X503503Y251627D01*
X503462Y251770D01*
X503426Y251913D01*
X503414Y251937D01*
X503407Y251962D01*
X503334Y252092D01*
X503267Y252223D01*
X503250Y252243D01*
X503237Y252266D01*
X503078Y252452D01*
X498935Y256595D01*
X498935Y264105D01*
X504245Y269415D01*
X511755Y269415D01*
X517065Y264105D01*
X517065Y256595D01*
X512003Y251533D01*
X511924Y251434D01*
X511840Y251341D01*
X511816Y251298D01*
X511786Y251260D01*
X511732Y251146D01*
X511671Y251036D01*
X511658Y250989D01*
X511637Y250945D01*
X511611Y250822D01*
X511576Y250700D01*
X511571Y250639D01*
X511564Y250605D01*
X511565Y250557D01*
X511557Y250456D01*
X511557Y248717D01*
X506923Y244083D01*
X505217Y242377D01*
X505155Y242298D01*
X505085Y242226D01*
X505047Y242162D01*
X505000Y242104D01*
X504958Y242013D01*
X504906Y241927D01*
X504883Y241856D01*
X504852Y241789D01*
X504830Y241691D01*
X504800Y241595D01*
X504794Y241521D01*
X504778Y241448D01*
X504780Y241348D01*
X504772Y241248D01*
X504783Y241174D01*
X504784Y241100D01*
X504809Y241003D01*
X504823Y240903D01*
X504851Y240834D01*
X504869Y240762D01*
X504915Y240673D01*
X504952Y240579D01*
X504995Y240518D01*
X505029Y240452D01*
X505094Y240376D01*
X505151Y240293D01*
X505206Y240243D01*
X505255Y240187D01*
X505335Y240127D01*
X505410Y240060D01*
X505475Y240024D01*
X505535Y239979D01*
X505627Y239940D01*
X505715Y239891D01*
X505787Y239871D01*
X505855Y239841D01*
X505954Y239824D01*
X506050Y239796D01*
X506150Y239788D01*
X506198Y239780D01*
X506234Y239782D01*
X506294Y239777D01*
X526216Y239777D01*
X526341Y239791D01*
X526468Y239798D01*
X526514Y239811D01*
X526562Y239817D01*
X526681Y239859D01*
X526802Y239894D01*
X526845Y239918D01*
X526890Y239934D01*
X526996Y240003D01*
X527107Y240064D01*
X527153Y240104D01*
X527183Y240123D01*
X527216Y240158D01*
X527293Y240223D01*
X529397Y242327D01*
X529476Y242426D01*
X529560Y242520D01*
X529584Y242562D01*
X529614Y242600D01*
X529668Y242714D01*
X529729Y242825D01*
X529742Y242872D01*
X529763Y242915D01*
X529789Y243039D01*
X529824Y243160D01*
X529829Y243221D01*
X529836Y243256D01*
X529835Y243304D01*
X529843Y243404D01*
X529843Y250456D01*
X529829Y250582D01*
X529822Y250708D01*
X529809Y250755D01*
X529803Y250803D01*
X529761Y250922D01*
X529726Y251043D01*
X529702Y251085D01*
X529686Y251131D01*
X529617Y251237D01*
X529556Y251347D01*
X529516Y251393D01*
X529497Y251423D01*
X529462Y251457D01*
X529397Y251533D01*
X524335Y256595D01*
X524335Y264105D01*
X529645Y269415D01*
X537155Y269415D01*
X542465Y264105D01*
X542465Y256595D01*
X537403Y251533D01*
X537324Y251434D01*
X537240Y251341D01*
X537216Y251298D01*
X537186Y251260D01*
X537132Y251146D01*
X537071Y251036D01*
X537058Y250989D01*
X537037Y250945D01*
X537011Y250822D01*
X536976Y250700D01*
X536971Y250639D01*
X536964Y250605D01*
X536965Y250557D01*
X536957Y250456D01*
X536957Y239827D01*
X529793Y232663D01*
X479624Y232663D01*
X479499Y232649D01*
X479372Y232642D01*
X479326Y232629D01*
X479278Y232623D01*
X479159Y232581D01*
X479038Y232546D01*
X478995Y232522D01*
X478950Y232506D01*
X478844Y232437D01*
X478733Y232376D01*
X478687Y232336D01*
X478657Y232317D01*
X478623Y232282D01*
X478547Y232217D01*
X476005Y229675D01*
X475943Y229597D01*
X475873Y229524D01*
X475835Y229460D01*
X475788Y229402D01*
X475746Y229311D01*
X475694Y229225D01*
X475671Y229154D01*
X475640Y229087D01*
X475618Y228989D01*
X475588Y228893D01*
X475582Y228819D01*
X475566Y228746D01*
X475568Y228646D01*
X475560Y228546D01*
X475571Y228472D01*
X475572Y228398D01*
X475597Y228301D01*
X475611Y228201D01*
X475639Y228132D01*
X475657Y228060D01*
X475703Y227971D01*
X475740Y227877D01*
X475783Y227816D01*
X475817Y227750D01*
X475882Y227674D01*
X475939Y227591D01*
X475994Y227541D01*
X476043Y227485D01*
X476123Y227425D01*
X476198Y227358D01*
X476263Y227322D01*
X476323Y227277D01*
X476415Y227238D01*
X476503Y227189D01*
X476575Y227169D01*
X476643Y227139D01*
X476742Y227122D01*
X476838Y227094D01*
X476938Y227086D01*
X476986Y227078D01*
X477022Y227080D01*
X477082Y227075D01*
X478032Y227075D01*
X478925Y226182D01*
X478925Y211918D01*
X477633Y210627D01*
X477617Y210607D01*
X477597Y210590D01*
X477509Y210470D01*
X477417Y210354D01*
X477406Y210330D01*
X477390Y210309D01*
X477331Y210173D01*
X477268Y210039D01*
X477262Y210013D01*
X477252Y209989D01*
X477226Y209843D01*
X477194Y209698D01*
X477195Y209672D01*
X477190Y209646D01*
X477198Y209498D01*
X477200Y209350D01*
X477207Y209324D01*
X477208Y209298D01*
X477249Y209156D01*
X477285Y209012D01*
X477297Y208989D01*
X477305Y208963D01*
X477377Y208834D01*
X477445Y208702D01*
X477462Y208682D01*
X477475Y208659D01*
X477633Y208473D01*
X478925Y207182D01*
X478925Y192918D01*
X478032Y192025D01*
X474980Y192025D01*
X474954Y192022D01*
X474928Y192024D01*
X474781Y192002D01*
X474634Y191985D01*
X474609Y191977D01*
X474583Y191973D01*
X474445Y191918D01*
X474306Y191868D01*
X474284Y191854D01*
X474259Y191844D01*
X474138Y191759D01*
X474013Y191679D01*
X473995Y191660D01*
X473973Y191645D01*
X473874Y191535D01*
X473771Y191428D01*
X473757Y191406D01*
X473740Y191386D01*
X473668Y191256D01*
X473592Y191129D01*
X473584Y191104D01*
X473571Y191081D01*
X473531Y190938D01*
X473486Y190797D01*
X473484Y190771D01*
X473476Y190746D01*
X473457Y190502D01*
X473457Y160244D01*
X473471Y160119D01*
X473478Y159992D01*
X473491Y159946D01*
X473497Y159898D01*
X473539Y159779D01*
X473574Y159658D01*
X473598Y159615D01*
X473614Y159570D01*
X473683Y159464D01*
X473744Y159353D01*
X473784Y159307D01*
X473803Y159277D01*
X473838Y159243D01*
X473903Y159167D01*
X476716Y156354D01*
X476833Y156261D01*
X476948Y156164D01*
X476970Y156153D01*
X476989Y156138D01*
X477124Y156073D01*
X477259Y156005D01*
X477282Y155999D01*
X477304Y155989D01*
X477451Y155957D01*
X477597Y155921D01*
X477621Y155920D01*
X477645Y155915D01*
X477794Y155918D01*
X477945Y155916D01*
X477969Y155921D01*
X477993Y155921D01*
X478138Y155958D01*
X478286Y155990D01*
X478308Y156000D01*
X478331Y156006D01*
X478464Y156075D01*
X478600Y156140D01*
X478619Y156155D01*
X478641Y156166D01*
X478755Y156263D01*
X478873Y156357D01*
X478888Y156376D01*
X478906Y156392D01*
X478995Y156513D01*
X479089Y156631D01*
X479102Y156657D01*
X479113Y156672D01*
X479132Y156715D01*
X479200Y156848D01*
X479265Y157005D01*
X481551Y159291D01*
X484539Y160529D01*
X500981Y160529D01*
X503969Y159291D01*
X506255Y157005D01*
X507493Y154017D01*
X507493Y150783D01*
X506255Y147795D01*
X503969Y145509D01*
X500981Y144271D01*
X484539Y144271D01*
X481551Y145509D01*
X479273Y147787D01*
X479174Y147866D01*
X479080Y147950D01*
X479038Y147974D01*
X479000Y148004D01*
X478886Y148058D01*
X478775Y148119D01*
X478729Y148132D01*
X478685Y148153D01*
X478562Y148179D01*
X478440Y148214D01*
X478379Y148219D01*
X478344Y148226D01*
X478296Y148225D01*
X478196Y148233D01*
X474777Y148233D01*
X466343Y156667D01*
X466343Y190502D01*
X466340Y190528D01*
X466342Y190554D01*
X466320Y190701D01*
X466303Y190848D01*
X466295Y190873D01*
X466291Y190899D01*
X466236Y191037D01*
X466186Y191176D01*
X466172Y191198D01*
X466162Y191223D01*
X466077Y191344D01*
X465997Y191469D01*
X465978Y191487D01*
X465963Y191509D01*
X465853Y191608D01*
X465746Y191711D01*
X465724Y191725D01*
X465704Y191742D01*
X465574Y191814D01*
X465447Y191890D01*
X465422Y191898D01*
X465399Y191911D01*
X465256Y191951D01*
X465115Y191996D01*
X465089Y191998D01*
X465064Y192006D01*
X464820Y192025D01*
X461768Y192025D01*
X460875Y192918D01*
X460875Y207182D01*
X462167Y208473D01*
X462183Y208493D01*
X462203Y208510D01*
X462291Y208630D01*
X462383Y208746D01*
X462394Y208770D01*
X462410Y208791D01*
X462469Y208927D01*
X462532Y209061D01*
X462538Y209087D01*
X462548Y209111D01*
X462574Y209257D01*
X462606Y209402D01*
X462605Y209428D01*
X462610Y209454D01*
X462602Y209602D01*
X462600Y209750D01*
X462593Y209776D01*
X462592Y209802D01*
X462551Y209944D01*
X462515Y210088D01*
X462503Y210111D01*
X462495Y210137D01*
X462423Y210266D01*
X462355Y210398D01*
X462338Y210418D01*
X462325Y210441D01*
X462167Y210627D01*
X460875Y211918D01*
X460875Y226182D01*
X461768Y227075D01*
X464820Y227075D01*
X464846Y227078D01*
X464872Y227076D01*
X465019Y227098D01*
X465166Y227115D01*
X465191Y227123D01*
X465217Y227127D01*
X465355Y227182D01*
X465494Y227232D01*
X465516Y227246D01*
X465541Y227256D01*
X465662Y227341D01*
X465787Y227421D01*
X465805Y227440D01*
X465827Y227455D01*
X465926Y227565D01*
X466029Y227672D01*
X466043Y227694D01*
X466060Y227714D01*
X466132Y227844D01*
X466208Y227971D01*
X466216Y227996D01*
X466229Y228019D01*
X466269Y228162D01*
X466314Y228303D01*
X466316Y228329D01*
X466324Y228354D01*
X466343Y228598D01*
X466343Y230073D01*
X473517Y237247D01*
X475223Y238953D01*
X475285Y239032D01*
X475355Y239104D01*
X475393Y239168D01*
X475440Y239226D01*
X475482Y239317D01*
X475534Y239403D01*
X475557Y239474D01*
X475588Y239541D01*
X475610Y239639D01*
X475640Y239735D01*
X475646Y239809D01*
X475662Y239882D01*
X475660Y239982D01*
X475668Y240082D01*
X475657Y240156D01*
X475656Y240230D01*
X475631Y240327D01*
X475617Y240427D01*
X475589Y240496D01*
X475571Y240568D01*
X475525Y240657D01*
X475488Y240751D01*
X475445Y240812D01*
X475411Y240878D01*
X475346Y240954D01*
X475289Y241037D01*
X475234Y241087D01*
X475185Y241143D01*
X475105Y241203D01*
X475030Y241270D01*
X474965Y241306D01*
X474905Y241351D01*
X474813Y241390D01*
X474725Y241439D01*
X474653Y241459D01*
X474585Y241489D01*
X474486Y241506D01*
X474390Y241534D01*
X474290Y241542D01*
X474242Y241550D01*
X474206Y241548D01*
X474146Y241553D01*
X458034Y241553D01*
X457909Y241539D01*
X457782Y241532D01*
X457736Y241519D01*
X457688Y241513D01*
X457569Y241471D01*
X457448Y241436D01*
X457405Y241412D01*
X457360Y241396D01*
X457254Y241327D01*
X457143Y241266D01*
X457097Y241226D01*
X457067Y241207D01*
X457034Y241172D01*
X456957Y241107D01*
X448503Y232653D01*
X448424Y232554D01*
X448340Y232460D01*
X448316Y232418D01*
X448286Y232380D01*
X448232Y232266D01*
X448171Y232155D01*
X448158Y232108D01*
X448137Y232065D01*
X448111Y231941D01*
X448076Y231820D01*
X448071Y231759D01*
X448064Y231724D01*
X448065Y231676D01*
X448057Y231576D01*
X448057Y228598D01*
X448060Y228572D01*
X448058Y228546D01*
X448080Y228399D01*
X448097Y228252D01*
X448105Y228227D01*
X448109Y228201D01*
X448164Y228063D01*
X448214Y227924D01*
X448228Y227902D01*
X448238Y227877D01*
X448323Y227756D01*
X448403Y227631D01*
X448422Y227613D01*
X448437Y227591D01*
X448547Y227492D01*
X448654Y227389D01*
X448676Y227375D01*
X448696Y227358D01*
X448826Y227286D01*
X448953Y227210D01*
X448978Y227202D01*
X449001Y227189D01*
X449144Y227149D01*
X449285Y227104D01*
X449311Y227102D01*
X449336Y227094D01*
X449580Y227075D01*
X452632Y227075D01*
X453525Y226182D01*
X453525Y211918D01*
X452233Y210627D01*
X452217Y210607D01*
X452197Y210590D01*
X452109Y210470D01*
X452017Y210354D01*
X452006Y210330D01*
X451990Y210309D01*
X451931Y210173D01*
X451868Y210039D01*
X451862Y210013D01*
X451852Y209989D01*
X451826Y209843D01*
X451794Y209698D01*
X451795Y209672D01*
X451790Y209646D01*
X451798Y209498D01*
X451800Y209350D01*
X451807Y209324D01*
X451808Y209298D01*
X451849Y209156D01*
X451885Y209012D01*
X451897Y208989D01*
X451905Y208963D01*
X451977Y208834D01*
X452045Y208702D01*
X452062Y208682D01*
X452075Y208659D01*
X452233Y208473D01*
X453525Y207182D01*
X453525Y192918D01*
X452632Y192025D01*
X449580Y192025D01*
X449554Y192022D01*
X449528Y192024D01*
X449381Y192002D01*
X449234Y191985D01*
X449209Y191977D01*
X449183Y191973D01*
X449045Y191918D01*
X448906Y191868D01*
X448884Y191854D01*
X448859Y191844D01*
X448738Y191759D01*
X448613Y191679D01*
X448595Y191660D01*
X448573Y191645D01*
X448474Y191535D01*
X448371Y191428D01*
X448357Y191406D01*
X448340Y191386D01*
X448268Y191256D01*
X448192Y191129D01*
X448184Y191104D01*
X448171Y191081D01*
X448131Y190938D01*
X448086Y190797D01*
X448084Y190771D01*
X448076Y190746D01*
X448057Y190502D01*
X448057Y157277D01*
X439623Y148843D01*
X436587Y148843D01*
X436511Y148835D01*
X436435Y148836D01*
X436338Y148815D01*
X436241Y148803D01*
X436169Y148778D01*
X436094Y148761D01*
X436005Y148719D01*
X435913Y148686D01*
X435848Y148644D01*
X435779Y148612D01*
X435703Y148550D01*
X435620Y148497D01*
X435567Y148442D01*
X435507Y148394D01*
X435446Y148317D01*
X435378Y148246D01*
X435338Y148181D01*
X435291Y148121D01*
X435223Y147988D01*
X435199Y147947D01*
X435193Y147929D01*
X435180Y147903D01*
X435135Y147795D01*
X432849Y145509D01*
X429861Y144271D01*
X413419Y144271D01*
G37*
%LPD*%
%LPC*%
G36*
X341196Y124785D02*
X341196Y124785D01*
X338048Y126089D01*
X335639Y128498D01*
X334335Y131646D01*
X334335Y135054D01*
X335639Y138202D01*
X338048Y140611D01*
X338403Y140758D01*
X338470Y140795D01*
X338541Y140823D01*
X338621Y140879D01*
X338708Y140927D01*
X338764Y140978D01*
X338827Y141022D01*
X338893Y141095D01*
X338966Y141161D01*
X339009Y141224D01*
X339060Y141281D01*
X339108Y141367D01*
X339164Y141448D01*
X339192Y141519D01*
X339208Y141546D01*
X339210Y141551D01*
X339229Y141586D01*
X339256Y141681D01*
X339292Y141772D01*
X339301Y141837D01*
X339314Y141878D01*
X339316Y141893D01*
X339324Y141921D01*
X339336Y142070D01*
X339343Y142117D01*
X339341Y142136D01*
X339343Y142165D01*
X339343Y152103D01*
X339332Y152203D01*
X339330Y152304D01*
X339312Y152376D01*
X339303Y152450D01*
X339270Y152544D01*
X339245Y152642D01*
X339211Y152708D01*
X339186Y152778D01*
X339131Y152862D01*
X339085Y152951D01*
X339037Y153008D01*
X338997Y153071D01*
X338925Y153141D01*
X338860Y153217D01*
X338800Y153261D01*
X338746Y153313D01*
X338660Y153364D01*
X338579Y153424D01*
X338511Y153453D01*
X338447Y153492D01*
X338351Y153522D01*
X338259Y153562D01*
X338186Y153575D01*
X338115Y153598D01*
X338015Y153606D01*
X337916Y153624D01*
X337842Y153620D01*
X337768Y153626D01*
X337668Y153611D01*
X337568Y153606D01*
X337497Y153585D01*
X337423Y153574D01*
X337330Y153537D01*
X337233Y153509D01*
X337168Y153473D01*
X337099Y153445D01*
X337017Y153388D01*
X336929Y153339D01*
X336853Y153274D01*
X336813Y153246D01*
X336789Y153220D01*
X336743Y153181D01*
X335052Y151489D01*
X331904Y150185D01*
X328496Y150185D01*
X325348Y151489D01*
X322939Y153898D01*
X321635Y157046D01*
X321635Y160454D01*
X322939Y163602D01*
X325348Y166011D01*
X325703Y166158D01*
X325770Y166195D01*
X325841Y166223D01*
X325921Y166279D01*
X326008Y166327D01*
X326064Y166378D01*
X326127Y166422D01*
X326193Y166495D01*
X326266Y166561D01*
X326309Y166624D01*
X326360Y166681D01*
X326408Y166767D01*
X326464Y166848D01*
X326492Y166919D01*
X326529Y166986D01*
X326556Y167081D01*
X326592Y167172D01*
X326603Y167248D01*
X326624Y167321D01*
X326636Y167470D01*
X326643Y167517D01*
X326641Y167536D01*
X326643Y167565D01*
X326643Y190502D01*
X326640Y190528D01*
X326642Y190554D01*
X326620Y190701D01*
X326603Y190848D01*
X326595Y190873D01*
X326591Y190899D01*
X326536Y191037D01*
X326486Y191176D01*
X326472Y191198D01*
X326462Y191223D01*
X326377Y191344D01*
X326297Y191469D01*
X326278Y191487D01*
X326263Y191509D01*
X326153Y191608D01*
X326046Y191711D01*
X326024Y191725D01*
X326004Y191742D01*
X325874Y191814D01*
X325747Y191890D01*
X325722Y191898D01*
X325699Y191911D01*
X325556Y191951D01*
X325415Y191996D01*
X325389Y191998D01*
X325364Y192006D01*
X325120Y192025D01*
X322068Y192025D01*
X321175Y192918D01*
X321175Y207182D01*
X322467Y208473D01*
X322483Y208493D01*
X322503Y208510D01*
X322591Y208630D01*
X322683Y208746D01*
X322694Y208770D01*
X322710Y208791D01*
X322769Y208927D01*
X322832Y209061D01*
X322838Y209087D01*
X322848Y209111D01*
X322874Y209257D01*
X322906Y209402D01*
X322905Y209428D01*
X322910Y209454D01*
X322902Y209602D01*
X322900Y209750D01*
X322893Y209776D01*
X322892Y209802D01*
X322851Y209944D01*
X322815Y210088D01*
X322803Y210111D01*
X322795Y210137D01*
X322723Y210266D01*
X322655Y210398D01*
X322638Y210418D01*
X322625Y210441D01*
X322467Y210627D01*
X321175Y211918D01*
X321175Y226182D01*
X322068Y227075D01*
X325120Y227075D01*
X325146Y227078D01*
X325172Y227076D01*
X325319Y227098D01*
X325466Y227115D01*
X325491Y227123D01*
X325517Y227127D01*
X325655Y227182D01*
X325794Y227232D01*
X325816Y227246D01*
X325841Y227256D01*
X325962Y227341D01*
X326087Y227421D01*
X326105Y227440D01*
X326127Y227455D01*
X326226Y227565D01*
X326329Y227672D01*
X326343Y227694D01*
X326360Y227714D01*
X326432Y227844D01*
X326508Y227971D01*
X326516Y227996D01*
X326529Y228019D01*
X326569Y228162D01*
X326614Y228303D01*
X326616Y228329D01*
X326624Y228354D01*
X326643Y228598D01*
X326643Y250456D01*
X326629Y250582D01*
X326622Y250708D01*
X326609Y250755D01*
X326603Y250803D01*
X326561Y250921D01*
X326526Y251043D01*
X326502Y251085D01*
X326486Y251131D01*
X326417Y251237D01*
X326356Y251347D01*
X326316Y251393D01*
X326297Y251423D01*
X326262Y251457D01*
X326197Y251533D01*
X321135Y256595D01*
X321135Y264105D01*
X326445Y269415D01*
X333955Y269415D01*
X339265Y264105D01*
X339265Y256595D01*
X334203Y251533D01*
X334124Y251434D01*
X334040Y251341D01*
X334016Y251298D01*
X333986Y251260D01*
X333932Y251146D01*
X333871Y251036D01*
X333858Y250989D01*
X333837Y250945D01*
X333811Y250822D01*
X333776Y250700D01*
X333771Y250639D01*
X333764Y250605D01*
X333765Y250557D01*
X333757Y250456D01*
X333757Y228598D01*
X333760Y228572D01*
X333758Y228546D01*
X333780Y228399D01*
X333797Y228252D01*
X333805Y228227D01*
X333809Y228201D01*
X333864Y228063D01*
X333914Y227924D01*
X333928Y227902D01*
X333938Y227877D01*
X334023Y227756D01*
X334103Y227631D01*
X334122Y227613D01*
X334137Y227591D01*
X334247Y227492D01*
X334354Y227389D01*
X334376Y227375D01*
X334396Y227358D01*
X334526Y227286D01*
X334653Y227210D01*
X334678Y227202D01*
X334701Y227189D01*
X334844Y227149D01*
X334985Y227104D01*
X335011Y227102D01*
X335036Y227094D01*
X335280Y227075D01*
X338332Y227075D01*
X339225Y226182D01*
X339225Y211918D01*
X337933Y210627D01*
X337917Y210607D01*
X337897Y210590D01*
X337809Y210470D01*
X337717Y210354D01*
X337706Y210330D01*
X337690Y210309D01*
X337631Y210173D01*
X337568Y210039D01*
X337562Y210013D01*
X337552Y209989D01*
X337526Y209843D01*
X337494Y209698D01*
X337495Y209672D01*
X337490Y209646D01*
X337498Y209498D01*
X337500Y209350D01*
X337507Y209324D01*
X337508Y209298D01*
X337549Y209156D01*
X337585Y209012D01*
X337597Y208989D01*
X337605Y208963D01*
X337677Y208834D01*
X337745Y208702D01*
X337762Y208682D01*
X337775Y208659D01*
X337933Y208473D01*
X339225Y207182D01*
X339225Y192918D01*
X338332Y192025D01*
X335280Y192025D01*
X335254Y192022D01*
X335228Y192024D01*
X335081Y192002D01*
X334934Y191985D01*
X334909Y191977D01*
X334883Y191973D01*
X334745Y191918D01*
X334606Y191868D01*
X334584Y191854D01*
X334559Y191844D01*
X334438Y191759D01*
X334313Y191679D01*
X334295Y191660D01*
X334273Y191645D01*
X334174Y191535D01*
X334071Y191428D01*
X334057Y191406D01*
X334040Y191386D01*
X333968Y191256D01*
X333892Y191129D01*
X333884Y191104D01*
X333871Y191081D01*
X333831Y190938D01*
X333786Y190797D01*
X333784Y190771D01*
X333776Y190746D01*
X333757Y190502D01*
X333757Y167565D01*
X333765Y167489D01*
X333764Y167413D01*
X333785Y167316D01*
X333797Y167219D01*
X333822Y167147D01*
X333839Y167072D01*
X333881Y166983D01*
X333914Y166891D01*
X333956Y166826D01*
X333988Y166757D01*
X334050Y166680D01*
X334103Y166598D01*
X334158Y166545D01*
X334206Y166485D01*
X334283Y166424D01*
X334354Y166356D01*
X334419Y166316D01*
X334479Y166269D01*
X334613Y166201D01*
X334653Y166177D01*
X334671Y166171D01*
X334697Y166158D01*
X335052Y166011D01*
X336743Y164319D01*
X336821Y164257D01*
X336894Y164187D01*
X336958Y164149D01*
X337016Y164103D01*
X337107Y164060D01*
X337193Y164008D01*
X337264Y163986D01*
X337331Y163954D01*
X337429Y163933D01*
X337525Y163902D01*
X337599Y163896D01*
X337672Y163881D01*
X337772Y163882D01*
X337872Y163874D01*
X337946Y163885D01*
X338020Y163886D01*
X338117Y163911D01*
X338217Y163926D01*
X338286Y163953D01*
X338358Y163971D01*
X338447Y164017D01*
X338541Y164055D01*
X338602Y164097D01*
X338668Y164131D01*
X338744Y164196D01*
X338827Y164254D01*
X338877Y164309D01*
X338933Y164357D01*
X338993Y164438D01*
X339060Y164512D01*
X339096Y164577D01*
X339141Y164637D01*
X339180Y164729D01*
X339229Y164817D01*
X339249Y164889D01*
X339279Y164957D01*
X339296Y165056D01*
X339324Y165153D01*
X339332Y165253D01*
X339340Y165300D01*
X339338Y165336D01*
X339343Y165397D01*
X339343Y172923D01*
X351597Y185177D01*
X351676Y185276D01*
X351760Y185370D01*
X351784Y185412D01*
X351814Y185450D01*
X351868Y185564D01*
X351929Y185675D01*
X351942Y185722D01*
X351963Y185765D01*
X351989Y185889D01*
X352024Y186010D01*
X352029Y186071D01*
X352036Y186106D01*
X352035Y186154D01*
X352043Y186254D01*
X352043Y190502D01*
X352040Y190528D01*
X352042Y190554D01*
X352020Y190701D01*
X352003Y190848D01*
X351995Y190873D01*
X351991Y190899D01*
X351936Y191037D01*
X351886Y191176D01*
X351872Y191198D01*
X351862Y191223D01*
X351777Y191344D01*
X351697Y191469D01*
X351678Y191487D01*
X351663Y191509D01*
X351553Y191608D01*
X351446Y191711D01*
X351424Y191725D01*
X351404Y191742D01*
X351274Y191814D01*
X351147Y191890D01*
X351122Y191898D01*
X351099Y191911D01*
X350956Y191951D01*
X350815Y191996D01*
X350789Y191998D01*
X350764Y192006D01*
X350520Y192025D01*
X347468Y192025D01*
X346575Y192918D01*
X346575Y207182D01*
X347867Y208473D01*
X347883Y208493D01*
X347903Y208510D01*
X347991Y208630D01*
X348083Y208746D01*
X348094Y208770D01*
X348110Y208791D01*
X348169Y208927D01*
X348232Y209061D01*
X348238Y209087D01*
X348248Y209111D01*
X348274Y209257D01*
X348306Y209402D01*
X348305Y209428D01*
X348310Y209454D01*
X348302Y209602D01*
X348300Y209750D01*
X348293Y209776D01*
X348292Y209802D01*
X348251Y209944D01*
X348215Y210088D01*
X348203Y210111D01*
X348195Y210137D01*
X348123Y210266D01*
X348055Y210398D01*
X348038Y210418D01*
X348025Y210441D01*
X347867Y210627D01*
X346575Y211918D01*
X346575Y226182D01*
X347468Y227075D01*
X350520Y227075D01*
X350546Y227078D01*
X350572Y227076D01*
X350719Y227098D01*
X350866Y227115D01*
X350891Y227123D01*
X350917Y227127D01*
X351055Y227182D01*
X351194Y227232D01*
X351216Y227246D01*
X351241Y227256D01*
X351362Y227341D01*
X351487Y227421D01*
X351505Y227440D01*
X351527Y227455D01*
X351626Y227565D01*
X351729Y227672D01*
X351743Y227694D01*
X351760Y227714D01*
X351832Y227844D01*
X351908Y227971D01*
X351916Y227996D01*
X351929Y228019D01*
X351969Y228162D01*
X352014Y228303D01*
X352016Y228329D01*
X352024Y228354D01*
X352043Y228598D01*
X352043Y250456D01*
X352029Y250582D01*
X352022Y250708D01*
X352009Y250755D01*
X352003Y250803D01*
X351961Y250921D01*
X351926Y251043D01*
X351902Y251085D01*
X351886Y251131D01*
X351817Y251237D01*
X351756Y251347D01*
X351716Y251393D01*
X351697Y251423D01*
X351662Y251457D01*
X351597Y251533D01*
X346535Y256595D01*
X346535Y264105D01*
X351845Y269415D01*
X359355Y269415D01*
X364665Y264105D01*
X364665Y256595D01*
X359603Y251533D01*
X359524Y251434D01*
X359440Y251341D01*
X359416Y251298D01*
X359386Y251260D01*
X359332Y251146D01*
X359271Y251036D01*
X359258Y250989D01*
X359237Y250945D01*
X359211Y250822D01*
X359176Y250700D01*
X359171Y250639D01*
X359164Y250605D01*
X359165Y250557D01*
X359157Y250456D01*
X359157Y228598D01*
X359160Y228572D01*
X359158Y228546D01*
X359180Y228399D01*
X359197Y228252D01*
X359205Y228227D01*
X359209Y228201D01*
X359264Y228063D01*
X359314Y227924D01*
X359328Y227902D01*
X359338Y227877D01*
X359423Y227756D01*
X359503Y227631D01*
X359522Y227613D01*
X359537Y227591D01*
X359647Y227492D01*
X359754Y227389D01*
X359776Y227375D01*
X359796Y227358D01*
X359926Y227286D01*
X360053Y227210D01*
X360078Y227202D01*
X360101Y227189D01*
X360244Y227149D01*
X360385Y227104D01*
X360411Y227102D01*
X360436Y227094D01*
X360680Y227075D01*
X363732Y227075D01*
X364625Y226182D01*
X364625Y211918D01*
X363333Y210627D01*
X363317Y210607D01*
X363297Y210590D01*
X363209Y210470D01*
X363117Y210354D01*
X363106Y210330D01*
X363090Y210309D01*
X363031Y210173D01*
X362968Y210039D01*
X362962Y210013D01*
X362952Y209989D01*
X362926Y209843D01*
X362894Y209698D01*
X362895Y209672D01*
X362890Y209646D01*
X362898Y209498D01*
X362900Y209350D01*
X362907Y209324D01*
X362908Y209298D01*
X362949Y209156D01*
X362985Y209012D01*
X362997Y208989D01*
X363005Y208963D01*
X363077Y208834D01*
X363145Y208702D01*
X363162Y208682D01*
X363175Y208659D01*
X363333Y208473D01*
X364625Y207182D01*
X364625Y192918D01*
X363732Y192025D01*
X360680Y192025D01*
X360654Y192022D01*
X360628Y192024D01*
X360481Y192002D01*
X360334Y191985D01*
X360309Y191977D01*
X360283Y191973D01*
X360145Y191918D01*
X360006Y191868D01*
X359984Y191854D01*
X359959Y191844D01*
X359838Y191759D01*
X359713Y191679D01*
X359695Y191660D01*
X359673Y191645D01*
X359574Y191535D01*
X359471Y191428D01*
X359457Y191406D01*
X359440Y191386D01*
X359368Y191256D01*
X359292Y191129D01*
X359284Y191104D01*
X359271Y191081D01*
X359231Y190938D01*
X359186Y190797D01*
X359184Y190771D01*
X359176Y190746D01*
X359157Y190502D01*
X359157Y182677D01*
X356627Y180147D01*
X347411Y170931D01*
X347349Y170853D01*
X347279Y170780D01*
X347241Y170716D01*
X347194Y170658D01*
X347152Y170567D01*
X347100Y170481D01*
X347077Y170410D01*
X347046Y170343D01*
X347024Y170245D01*
X346994Y170149D01*
X346988Y170075D01*
X346972Y170002D01*
X346974Y169902D01*
X346966Y169802D01*
X346977Y169728D01*
X346978Y169654D01*
X347003Y169557D01*
X347017Y169457D01*
X347045Y169388D01*
X347063Y169316D01*
X347109Y169226D01*
X347146Y169133D01*
X347189Y169072D01*
X347223Y169006D01*
X347288Y168929D01*
X347345Y168847D01*
X347400Y168797D01*
X347449Y168741D01*
X347529Y168681D01*
X347604Y168614D01*
X347669Y168578D01*
X347729Y168533D01*
X347821Y168494D01*
X347909Y168445D01*
X347981Y168425D01*
X348049Y168395D01*
X348148Y168378D01*
X348244Y168350D01*
X348344Y168342D01*
X348392Y168334D01*
X348428Y168336D01*
X348488Y168331D01*
X353351Y168331D01*
X353351Y159476D01*
X353354Y159450D01*
X353352Y159424D01*
X353374Y159277D01*
X353391Y159130D01*
X353399Y159105D01*
X353403Y159079D01*
X353458Y158942D01*
X353508Y158802D01*
X353522Y158780D01*
X353532Y158755D01*
X353541Y158743D01*
X353486Y158651D01*
X353478Y158626D01*
X353465Y158603D01*
X353425Y158460D01*
X353380Y158319D01*
X353377Y158293D01*
X353370Y158268D01*
X353351Y158024D01*
X353351Y149169D01*
X348106Y149169D01*
X348030Y149181D01*
X347979Y149176D01*
X347928Y149180D01*
X347806Y149162D01*
X347683Y149152D01*
X347634Y149136D01*
X347583Y149129D01*
X347468Y149083D01*
X347351Y149045D01*
X347307Y149019D01*
X347259Y149000D01*
X347158Y148930D01*
X347052Y148866D01*
X347015Y148830D01*
X346973Y148801D01*
X346890Y148709D01*
X346802Y148623D01*
X346774Y148580D01*
X346740Y148542D01*
X346680Y148434D01*
X346613Y148330D01*
X346596Y148282D01*
X346571Y148237D01*
X346538Y148118D01*
X346496Y148002D01*
X346490Y147951D01*
X346476Y147902D01*
X346457Y147658D01*
X346457Y142165D01*
X346459Y142142D01*
X346458Y142121D01*
X346465Y142071D01*
X346464Y142013D01*
X346485Y141916D01*
X346497Y141819D01*
X346508Y141788D01*
X346509Y141776D01*
X346524Y141740D01*
X346539Y141672D01*
X346581Y141583D01*
X346614Y141491D01*
X346637Y141455D01*
X346638Y141452D01*
X346648Y141439D01*
X346656Y141426D01*
X346688Y141357D01*
X346750Y141280D01*
X346803Y141198D01*
X346858Y141145D01*
X346906Y141085D01*
X346983Y141024D01*
X347054Y140956D01*
X347119Y140916D01*
X347179Y140869D01*
X347313Y140801D01*
X347353Y140777D01*
X347371Y140771D01*
X347397Y140758D01*
X347752Y140611D01*
X350161Y138202D01*
X351465Y135054D01*
X351465Y131646D01*
X350161Y128498D01*
X347752Y126089D01*
X344604Y124785D01*
X341196Y124785D01*
G37*
%LPD*%
%LPC*%
G36*
X131877Y78993D02*
X131877Y78993D01*
X118861Y92009D01*
X118762Y92088D01*
X118668Y92172D01*
X118626Y92196D01*
X118588Y92226D01*
X118474Y92280D01*
X118363Y92341D01*
X118316Y92354D01*
X118273Y92375D01*
X118149Y92401D01*
X118028Y92436D01*
X117967Y92441D01*
X117932Y92448D01*
X117884Y92447D01*
X117784Y92455D01*
X110512Y92455D01*
X105155Y97812D01*
X105155Y105388D01*
X110512Y110745D01*
X118088Y110745D01*
X123445Y105388D01*
X123445Y98116D01*
X123459Y97991D01*
X123466Y97864D01*
X123479Y97818D01*
X123485Y97770D01*
X123527Y97651D01*
X123562Y97530D01*
X123586Y97487D01*
X123602Y97442D01*
X123671Y97336D01*
X123732Y97225D01*
X123772Y97179D01*
X123791Y97149D01*
X123826Y97116D01*
X123891Y97039D01*
X134377Y86553D01*
X134476Y86474D01*
X134570Y86390D01*
X134612Y86366D01*
X134650Y86336D01*
X134764Y86282D01*
X134875Y86221D01*
X134922Y86208D01*
X134965Y86187D01*
X135089Y86161D01*
X135210Y86126D01*
X135271Y86121D01*
X135306Y86114D01*
X135354Y86115D01*
X135454Y86107D01*
X194746Y86107D01*
X194871Y86121D01*
X194998Y86128D01*
X195044Y86141D01*
X195092Y86147D01*
X195211Y86189D01*
X195332Y86224D01*
X195375Y86248D01*
X195420Y86264D01*
X195526Y86333D01*
X195637Y86394D01*
X195683Y86434D01*
X195713Y86453D01*
X195746Y86488D01*
X195823Y86553D01*
X205547Y96277D01*
X205626Y96376D01*
X205710Y96470D01*
X205734Y96512D01*
X205764Y96550D01*
X205818Y96664D01*
X205879Y96775D01*
X205892Y96822D01*
X205913Y96865D01*
X205939Y96989D01*
X205974Y97110D01*
X205979Y97171D01*
X205986Y97206D01*
X205985Y97254D01*
X205993Y97354D01*
X205993Y182046D01*
X205979Y182171D01*
X205972Y182298D01*
X205959Y182344D01*
X205953Y182392D01*
X205911Y182511D01*
X205876Y182632D01*
X205852Y182675D01*
X205836Y182720D01*
X205767Y182826D01*
X205706Y182937D01*
X205666Y182983D01*
X205647Y183013D01*
X205612Y183046D01*
X205547Y183123D01*
X148843Y239827D01*
X148843Y250456D01*
X148829Y250582D01*
X148822Y250708D01*
X148809Y250755D01*
X148803Y250803D01*
X148761Y250921D01*
X148726Y251043D01*
X148702Y251085D01*
X148686Y251131D01*
X148617Y251237D01*
X148556Y251347D01*
X148516Y251393D01*
X148497Y251423D01*
X148462Y251457D01*
X148397Y251533D01*
X143335Y256595D01*
X143335Y264105D01*
X148645Y269415D01*
X156155Y269415D01*
X161465Y264105D01*
X161465Y256595D01*
X156403Y251533D01*
X156324Y251434D01*
X156240Y251341D01*
X156216Y251298D01*
X156186Y251260D01*
X156132Y251146D01*
X156071Y251036D01*
X156058Y250989D01*
X156037Y250945D01*
X156011Y250822D01*
X155976Y250700D01*
X155971Y250639D01*
X155964Y250605D01*
X155965Y250557D01*
X155957Y250456D01*
X155957Y243404D01*
X155971Y243279D01*
X155978Y243152D01*
X155991Y243106D01*
X155997Y243058D01*
X156039Y242939D01*
X156074Y242818D01*
X156098Y242775D01*
X156114Y242730D01*
X156183Y242624D01*
X156244Y242513D01*
X156284Y242467D01*
X156303Y242437D01*
X156338Y242404D01*
X156403Y242327D01*
X213107Y185623D01*
X213107Y93777D01*
X198323Y78993D01*
X131877Y78993D01*
G37*
%LPD*%
%LPC*%
G36*
X595097Y27845D02*
X595097Y27845D01*
X591765Y29225D01*
X589215Y31775D01*
X587835Y35107D01*
X587835Y53793D01*
X589215Y57125D01*
X591765Y59675D01*
X592403Y59939D01*
X592470Y59976D01*
X592541Y60004D01*
X592621Y60060D01*
X592708Y60108D01*
X592764Y60160D01*
X592827Y60203D01*
X592893Y60276D01*
X592966Y60342D01*
X593009Y60405D01*
X593060Y60462D01*
X593108Y60548D01*
X593164Y60629D01*
X593192Y60700D01*
X593229Y60767D01*
X593256Y60862D01*
X593292Y60953D01*
X593303Y61029D01*
X593324Y61102D01*
X593336Y61251D01*
X593343Y61298D01*
X593341Y61317D01*
X593343Y61346D01*
X593343Y67746D01*
X593329Y67871D01*
X593322Y67998D01*
X593309Y68044D01*
X593303Y68092D01*
X593261Y68211D01*
X593226Y68332D01*
X593202Y68375D01*
X593186Y68420D01*
X593117Y68526D01*
X593056Y68637D01*
X593016Y68683D01*
X592997Y68713D01*
X592962Y68746D01*
X592897Y68823D01*
X538723Y122997D01*
X538624Y123076D01*
X538530Y123160D01*
X538488Y123184D01*
X538450Y123214D01*
X538336Y123268D01*
X538225Y123329D01*
X538178Y123342D01*
X538135Y123363D01*
X538011Y123389D01*
X537890Y123424D01*
X537829Y123429D01*
X537794Y123436D01*
X537746Y123435D01*
X537646Y123443D01*
X507707Y123443D01*
X507631Y123435D01*
X507555Y123436D01*
X507458Y123415D01*
X507361Y123403D01*
X507289Y123378D01*
X507214Y123361D01*
X507125Y123319D01*
X507033Y123286D01*
X506968Y123244D01*
X506899Y123212D01*
X506823Y123150D01*
X506740Y123097D01*
X506687Y123042D01*
X506627Y122994D01*
X506566Y122917D01*
X506498Y122846D01*
X506458Y122781D01*
X506411Y122721D01*
X506343Y122588D01*
X506319Y122547D01*
X506313Y122529D01*
X506300Y122503D01*
X506255Y122395D01*
X503969Y120109D01*
X500981Y118871D01*
X484539Y118871D01*
X481551Y120109D01*
X479265Y122395D01*
X478027Y125383D01*
X478027Y128617D01*
X479265Y131605D01*
X481551Y133891D01*
X484539Y135129D01*
X500981Y135129D01*
X503969Y133891D01*
X506255Y131605D01*
X506300Y131497D01*
X506337Y131430D01*
X506365Y131359D01*
X506421Y131279D01*
X506469Y131192D01*
X506520Y131136D01*
X506564Y131073D01*
X506637Y131007D01*
X506703Y130934D01*
X506766Y130891D01*
X506823Y130840D01*
X506909Y130792D01*
X506990Y130736D01*
X507061Y130708D01*
X507128Y130671D01*
X507223Y130644D01*
X507314Y130608D01*
X507390Y130597D01*
X507463Y130576D01*
X507612Y130564D01*
X507659Y130557D01*
X507678Y130559D01*
X507707Y130557D01*
X541223Y130557D01*
X600457Y71323D01*
X600457Y61346D01*
X600465Y61270D01*
X600464Y61194D01*
X600485Y61097D01*
X600497Y61000D01*
X600522Y60928D01*
X600539Y60853D01*
X600581Y60764D01*
X600614Y60672D01*
X600656Y60608D01*
X600688Y60539D01*
X600750Y60462D01*
X600803Y60379D01*
X600858Y60326D01*
X600906Y60266D01*
X600983Y60205D01*
X601054Y60137D01*
X601119Y60097D01*
X601179Y60050D01*
X601312Y59982D01*
X601353Y59958D01*
X601371Y59952D01*
X601397Y59939D01*
X602035Y59675D01*
X604585Y57125D01*
X605965Y53793D01*
X605965Y35107D01*
X604585Y31775D01*
X602035Y29225D01*
X598703Y27845D01*
X595097Y27845D01*
G37*
%LPD*%
%LPC*%
G36*
X366596Y124785D02*
X366596Y124785D01*
X363448Y126089D01*
X361039Y128498D01*
X359735Y131646D01*
X359735Y135054D01*
X361039Y138202D01*
X363448Y140611D01*
X363803Y140758D01*
X363870Y140795D01*
X363941Y140823D01*
X364021Y140879D01*
X364108Y140927D01*
X364164Y140978D01*
X364227Y141022D01*
X364293Y141095D01*
X364366Y141161D01*
X364409Y141224D01*
X364460Y141281D01*
X364508Y141367D01*
X364564Y141448D01*
X364592Y141519D01*
X364608Y141546D01*
X364610Y141551D01*
X364629Y141586D01*
X364656Y141681D01*
X364692Y141772D01*
X364701Y141837D01*
X364714Y141878D01*
X364716Y141893D01*
X364724Y141921D01*
X364736Y142070D01*
X364743Y142117D01*
X364741Y142136D01*
X364743Y142165D01*
X364743Y147658D01*
X364737Y147709D01*
X364740Y147760D01*
X364718Y147882D01*
X364703Y148004D01*
X364686Y148053D01*
X364677Y148103D01*
X364628Y148216D01*
X364586Y148332D01*
X364558Y148375D01*
X364538Y148422D01*
X364464Y148522D01*
X364397Y148625D01*
X364360Y148661D01*
X364329Y148702D01*
X364235Y148782D01*
X364146Y148867D01*
X364102Y148894D01*
X364063Y148927D01*
X363953Y148983D01*
X363847Y149046D01*
X363798Y149062D01*
X363753Y149085D01*
X363633Y149115D01*
X363515Y149152D01*
X363464Y149157D01*
X363414Y149169D01*
X363291Y149171D01*
X363168Y149180D01*
X363117Y149173D01*
X363066Y149174D01*
X363043Y149169D01*
X357849Y149169D01*
X357849Y158024D01*
X357846Y158050D01*
X357848Y158076D01*
X357826Y158223D01*
X357809Y158370D01*
X357801Y158395D01*
X357797Y158421D01*
X357742Y158558D01*
X357692Y158698D01*
X357678Y158720D01*
X357668Y158745D01*
X357659Y158757D01*
X357714Y158849D01*
X357722Y158874D01*
X357735Y158897D01*
X357775Y159040D01*
X357820Y159181D01*
X357822Y159207D01*
X357830Y159232D01*
X357849Y159476D01*
X357849Y168331D01*
X363094Y168331D01*
X363170Y168319D01*
X363221Y168324D01*
X363272Y168320D01*
X363394Y168338D01*
X363517Y168348D01*
X363566Y168364D01*
X363617Y168371D01*
X363732Y168417D01*
X363849Y168455D01*
X363893Y168481D01*
X363941Y168500D01*
X364042Y168570D01*
X364148Y168634D01*
X364185Y168670D01*
X364227Y168699D01*
X364310Y168791D01*
X364398Y168877D01*
X364426Y168920D01*
X364460Y168958D01*
X364520Y169066D01*
X364587Y169170D01*
X364604Y169218D01*
X364629Y169263D01*
X364662Y169382D01*
X364704Y169498D01*
X364710Y169549D01*
X364724Y169598D01*
X364743Y169842D01*
X364743Y172923D01*
X376997Y185177D01*
X377076Y185276D01*
X377160Y185370D01*
X377184Y185412D01*
X377214Y185450D01*
X377268Y185564D01*
X377329Y185675D01*
X377342Y185722D01*
X377363Y185765D01*
X377389Y185889D01*
X377424Y186010D01*
X377429Y186071D01*
X377436Y186106D01*
X377435Y186154D01*
X377443Y186254D01*
X377443Y190502D01*
X377440Y190528D01*
X377442Y190554D01*
X377420Y190701D01*
X377403Y190848D01*
X377395Y190873D01*
X377391Y190899D01*
X377336Y191037D01*
X377286Y191176D01*
X377272Y191198D01*
X377262Y191223D01*
X377177Y191344D01*
X377097Y191469D01*
X377078Y191487D01*
X377063Y191509D01*
X376953Y191608D01*
X376846Y191711D01*
X376824Y191725D01*
X376804Y191742D01*
X376674Y191814D01*
X376547Y191890D01*
X376522Y191898D01*
X376499Y191911D01*
X376356Y191951D01*
X376215Y191996D01*
X376189Y191998D01*
X376164Y192006D01*
X375920Y192025D01*
X372868Y192025D01*
X371975Y192918D01*
X371975Y207182D01*
X373267Y208473D01*
X373283Y208493D01*
X373303Y208510D01*
X373391Y208630D01*
X373483Y208746D01*
X373494Y208770D01*
X373510Y208791D01*
X373569Y208927D01*
X373632Y209061D01*
X373638Y209087D01*
X373648Y209111D01*
X373674Y209257D01*
X373706Y209402D01*
X373705Y209428D01*
X373710Y209454D01*
X373702Y209602D01*
X373700Y209750D01*
X373693Y209776D01*
X373692Y209802D01*
X373651Y209944D01*
X373615Y210088D01*
X373603Y210111D01*
X373595Y210137D01*
X373523Y210266D01*
X373455Y210398D01*
X373438Y210418D01*
X373425Y210441D01*
X373267Y210627D01*
X371975Y211918D01*
X371975Y226182D01*
X372868Y227075D01*
X375920Y227075D01*
X375946Y227078D01*
X375972Y227076D01*
X376119Y227098D01*
X376266Y227115D01*
X376291Y227123D01*
X376317Y227127D01*
X376455Y227182D01*
X376594Y227232D01*
X376616Y227246D01*
X376641Y227256D01*
X376762Y227341D01*
X376887Y227421D01*
X376905Y227440D01*
X376927Y227455D01*
X377026Y227565D01*
X377129Y227672D01*
X377143Y227694D01*
X377160Y227714D01*
X377232Y227844D01*
X377308Y227971D01*
X377316Y227996D01*
X377329Y228019D01*
X377369Y228162D01*
X377414Y228303D01*
X377416Y228329D01*
X377424Y228354D01*
X377443Y228598D01*
X377443Y250456D01*
X377429Y250582D01*
X377422Y250708D01*
X377409Y250755D01*
X377403Y250803D01*
X377361Y250921D01*
X377326Y251043D01*
X377302Y251085D01*
X377286Y251131D01*
X377217Y251237D01*
X377156Y251347D01*
X377116Y251393D01*
X377097Y251423D01*
X377062Y251457D01*
X376997Y251533D01*
X371935Y256595D01*
X371935Y264105D01*
X377245Y269415D01*
X384755Y269415D01*
X390065Y264105D01*
X390065Y256595D01*
X385003Y251533D01*
X384924Y251434D01*
X384840Y251341D01*
X384816Y251298D01*
X384786Y251260D01*
X384732Y251146D01*
X384671Y251036D01*
X384658Y250989D01*
X384637Y250945D01*
X384611Y250822D01*
X384576Y250700D01*
X384571Y250639D01*
X384564Y250605D01*
X384565Y250557D01*
X384557Y250456D01*
X384557Y228598D01*
X384560Y228572D01*
X384558Y228546D01*
X384580Y228399D01*
X384597Y228252D01*
X384605Y228227D01*
X384609Y228201D01*
X384664Y228063D01*
X384714Y227924D01*
X384728Y227902D01*
X384738Y227877D01*
X384823Y227756D01*
X384903Y227631D01*
X384922Y227613D01*
X384937Y227591D01*
X385047Y227492D01*
X385154Y227389D01*
X385176Y227375D01*
X385196Y227358D01*
X385326Y227286D01*
X385453Y227210D01*
X385478Y227202D01*
X385501Y227189D01*
X385644Y227149D01*
X385785Y227104D01*
X385811Y227102D01*
X385836Y227094D01*
X386080Y227075D01*
X389132Y227075D01*
X390025Y226182D01*
X390025Y211918D01*
X388733Y210627D01*
X388717Y210607D01*
X388697Y210590D01*
X388609Y210470D01*
X388517Y210354D01*
X388506Y210330D01*
X388490Y210309D01*
X388431Y210173D01*
X388368Y210039D01*
X388362Y210013D01*
X388352Y209989D01*
X388326Y209843D01*
X388294Y209698D01*
X388295Y209672D01*
X388290Y209646D01*
X388298Y209498D01*
X388300Y209350D01*
X388307Y209324D01*
X388308Y209298D01*
X388349Y209156D01*
X388385Y209012D01*
X388397Y208989D01*
X388405Y208963D01*
X388477Y208834D01*
X388545Y208702D01*
X388562Y208682D01*
X388575Y208659D01*
X388733Y208473D01*
X390025Y207182D01*
X390025Y192918D01*
X389132Y192025D01*
X386080Y192025D01*
X386054Y192022D01*
X386028Y192024D01*
X385881Y192002D01*
X385734Y191985D01*
X385709Y191977D01*
X385683Y191973D01*
X385545Y191918D01*
X385406Y191868D01*
X385384Y191854D01*
X385359Y191844D01*
X385238Y191759D01*
X385113Y191679D01*
X385095Y191660D01*
X385073Y191645D01*
X384974Y191535D01*
X384871Y191428D01*
X384857Y191406D01*
X384840Y191386D01*
X384768Y191256D01*
X384692Y191129D01*
X384684Y191104D01*
X384671Y191081D01*
X384631Y190938D01*
X384586Y190797D01*
X384584Y190771D01*
X384576Y190746D01*
X384557Y190502D01*
X384557Y182677D01*
X372303Y170423D01*
X372224Y170324D01*
X372140Y170230D01*
X372116Y170188D01*
X372086Y170150D01*
X372032Y170036D01*
X371971Y169925D01*
X371958Y169878D01*
X371937Y169835D01*
X371911Y169711D01*
X371876Y169590D01*
X371871Y169529D01*
X371864Y169494D01*
X371865Y169446D01*
X371857Y169346D01*
X371857Y142165D01*
X371859Y142142D01*
X371858Y142121D01*
X371865Y142071D01*
X371864Y142013D01*
X371885Y141916D01*
X371897Y141819D01*
X371908Y141788D01*
X371909Y141776D01*
X371924Y141740D01*
X371939Y141672D01*
X371981Y141583D01*
X372014Y141491D01*
X372037Y141455D01*
X372038Y141452D01*
X372048Y141439D01*
X372056Y141426D01*
X372088Y141357D01*
X372150Y141280D01*
X372203Y141198D01*
X372258Y141145D01*
X372306Y141085D01*
X372383Y141024D01*
X372454Y140956D01*
X372519Y140916D01*
X372579Y140869D01*
X372713Y140801D01*
X372753Y140777D01*
X372771Y140771D01*
X372797Y140758D01*
X373152Y140611D01*
X375561Y138202D01*
X376865Y135054D01*
X376865Y131646D01*
X375561Y128498D01*
X373152Y126089D01*
X370004Y124785D01*
X366596Y124785D01*
G37*
%LPD*%
%LPC*%
G36*
X442697Y27845D02*
X442697Y27845D01*
X439365Y29225D01*
X436815Y31775D01*
X435435Y35107D01*
X435435Y53793D01*
X436815Y57125D01*
X439365Y59675D01*
X439495Y59728D01*
X439562Y59766D01*
X439633Y59794D01*
X439713Y59850D01*
X439800Y59898D01*
X439856Y59949D01*
X439919Y59993D01*
X439985Y60066D01*
X440058Y60132D01*
X440101Y60195D01*
X440152Y60251D01*
X440200Y60338D01*
X440256Y60418D01*
X440284Y60490D01*
X440321Y60557D01*
X440348Y60651D01*
X440384Y60743D01*
X440395Y60818D01*
X440416Y60892D01*
X440428Y61041D01*
X440435Y61088D01*
X440433Y61107D01*
X440435Y61136D01*
X440435Y65184D01*
X449166Y73915D01*
X503848Y73915D01*
X503924Y73923D01*
X504000Y73922D01*
X504096Y73943D01*
X504194Y73955D01*
X504266Y73980D01*
X504341Y73997D01*
X504429Y74039D01*
X504522Y74072D01*
X504586Y74114D01*
X504655Y74146D01*
X504732Y74208D01*
X504815Y74261D01*
X504868Y74316D01*
X504928Y74364D01*
X504989Y74441D01*
X505057Y74512D01*
X505096Y74577D01*
X505144Y74637D01*
X505212Y74770D01*
X505236Y74811D01*
X505242Y74829D01*
X505255Y74855D01*
X505327Y75030D01*
X507900Y77602D01*
X511261Y78995D01*
X530139Y78995D01*
X533500Y77602D01*
X536072Y75030D01*
X537465Y71669D01*
X537465Y68031D01*
X536072Y64670D01*
X533500Y62098D01*
X530139Y60705D01*
X511261Y60705D01*
X507900Y62098D01*
X505327Y64670D01*
X505255Y64845D01*
X505218Y64912D01*
X505190Y64983D01*
X505133Y65064D01*
X505086Y65150D01*
X505034Y65206D01*
X504991Y65269D01*
X504918Y65335D01*
X504852Y65408D01*
X504789Y65451D01*
X504732Y65502D01*
X504646Y65550D01*
X504565Y65606D01*
X504494Y65634D01*
X504427Y65671D01*
X504332Y65698D01*
X504241Y65734D01*
X504165Y65745D01*
X504091Y65766D01*
X503943Y65778D01*
X503896Y65785D01*
X503877Y65783D01*
X503848Y65785D01*
X453165Y65785D01*
X453039Y65771D01*
X452913Y65764D01*
X452866Y65751D01*
X452818Y65745D01*
X452699Y65703D01*
X452578Y65668D01*
X452536Y65644D01*
X452490Y65628D01*
X452384Y65559D01*
X452274Y65498D01*
X452228Y65458D01*
X452198Y65439D01*
X452164Y65404D01*
X452088Y65339D01*
X449011Y62262D01*
X448932Y62163D01*
X448848Y62070D01*
X448824Y62027D01*
X448794Y61989D01*
X448740Y61875D01*
X448679Y61765D01*
X448666Y61718D01*
X448645Y61674D01*
X448619Y61551D01*
X448584Y61429D01*
X448579Y61368D01*
X448572Y61334D01*
X448573Y61286D01*
X448565Y61185D01*
X448565Y61136D01*
X448573Y61060D01*
X448572Y60983D01*
X448593Y60887D01*
X448605Y60789D01*
X448630Y60718D01*
X448647Y60643D01*
X448689Y60554D01*
X448722Y60461D01*
X448764Y60397D01*
X448796Y60328D01*
X448858Y60251D01*
X448911Y60169D01*
X448966Y60115D01*
X449014Y60056D01*
X449091Y59995D01*
X449162Y59926D01*
X449227Y59887D01*
X449287Y59840D01*
X449420Y59772D01*
X449461Y59748D01*
X449479Y59742D01*
X449505Y59728D01*
X449635Y59675D01*
X452185Y57125D01*
X453565Y53793D01*
X453565Y35107D01*
X452185Y31775D01*
X449635Y29225D01*
X446303Y27845D01*
X442697Y27845D01*
G37*
%LPD*%
%LPC*%
G36*
X239497Y27845D02*
X239497Y27845D01*
X236165Y29225D01*
X233615Y31775D01*
X232235Y35107D01*
X232235Y53793D01*
X233615Y57125D01*
X236165Y59675D01*
X236295Y59728D01*
X236362Y59766D01*
X236433Y59794D01*
X236513Y59850D01*
X236600Y59898D01*
X236656Y59949D01*
X236719Y59993D01*
X236785Y60066D01*
X236858Y60132D01*
X236901Y60195D01*
X236952Y60251D01*
X237000Y60338D01*
X237056Y60418D01*
X237084Y60490D01*
X237121Y60557D01*
X237148Y60651D01*
X237184Y60743D01*
X237195Y60818D01*
X237216Y60892D01*
X237228Y61041D01*
X237235Y61088D01*
X237233Y61107D01*
X237235Y61136D01*
X237235Y65184D01*
X245966Y73915D01*
X300648Y73915D01*
X300724Y73923D01*
X300800Y73922D01*
X300896Y73943D01*
X300994Y73955D01*
X301066Y73980D01*
X301141Y73997D01*
X301229Y74039D01*
X301322Y74072D01*
X301386Y74114D01*
X301455Y74146D01*
X301532Y74208D01*
X301615Y74261D01*
X301668Y74316D01*
X301728Y74364D01*
X301789Y74441D01*
X301857Y74512D01*
X301896Y74577D01*
X301944Y74637D01*
X302012Y74770D01*
X302036Y74811D01*
X302042Y74829D01*
X302055Y74855D01*
X302127Y75030D01*
X304700Y77602D01*
X308061Y78995D01*
X326939Y78995D01*
X330300Y77602D01*
X332872Y75030D01*
X334265Y71669D01*
X334265Y68031D01*
X332872Y64670D01*
X330300Y62098D01*
X326939Y60705D01*
X308061Y60705D01*
X304700Y62098D01*
X302127Y64670D01*
X302055Y64845D01*
X302018Y64912D01*
X301990Y64983D01*
X301933Y65064D01*
X301886Y65150D01*
X301834Y65206D01*
X301791Y65269D01*
X301718Y65335D01*
X301652Y65408D01*
X301589Y65451D01*
X301532Y65502D01*
X301446Y65550D01*
X301365Y65606D01*
X301294Y65634D01*
X301227Y65671D01*
X301132Y65698D01*
X301041Y65734D01*
X300965Y65745D01*
X300891Y65766D01*
X300743Y65778D01*
X300696Y65785D01*
X300677Y65783D01*
X300648Y65785D01*
X249965Y65785D01*
X249839Y65771D01*
X249713Y65764D01*
X249666Y65751D01*
X249618Y65745D01*
X249499Y65703D01*
X249378Y65668D01*
X249336Y65644D01*
X249290Y65628D01*
X249184Y65559D01*
X249074Y65498D01*
X249028Y65458D01*
X248998Y65439D01*
X248964Y65404D01*
X248888Y65339D01*
X245811Y62262D01*
X245732Y62163D01*
X245648Y62070D01*
X245624Y62027D01*
X245594Y61989D01*
X245540Y61875D01*
X245479Y61765D01*
X245466Y61718D01*
X245445Y61674D01*
X245419Y61551D01*
X245384Y61429D01*
X245379Y61368D01*
X245372Y61334D01*
X245373Y61286D01*
X245365Y61185D01*
X245365Y61136D01*
X245373Y61060D01*
X245372Y60983D01*
X245393Y60887D01*
X245405Y60789D01*
X245430Y60718D01*
X245447Y60643D01*
X245489Y60554D01*
X245522Y60461D01*
X245564Y60397D01*
X245596Y60328D01*
X245658Y60251D01*
X245711Y60169D01*
X245766Y60115D01*
X245814Y60056D01*
X245891Y59995D01*
X245962Y59926D01*
X246027Y59887D01*
X246087Y59840D01*
X246220Y59772D01*
X246261Y59748D01*
X246279Y59742D01*
X246305Y59728D01*
X246435Y59675D01*
X248985Y57125D01*
X250365Y53793D01*
X250365Y35107D01*
X248985Y31775D01*
X246435Y29225D01*
X243103Y27845D01*
X239497Y27845D01*
G37*
%LPD*%
%LPC*%
G36*
X135912Y92455D02*
X135912Y92455D01*
X130555Y97812D01*
X130555Y105388D01*
X135697Y110530D01*
X135776Y110629D01*
X135860Y110723D01*
X135884Y110765D01*
X135914Y110803D01*
X135968Y110917D01*
X136029Y111028D01*
X136042Y111074D01*
X136063Y111118D01*
X136089Y111241D01*
X136124Y111363D01*
X136129Y111424D01*
X136136Y111459D01*
X136135Y111507D01*
X136143Y111607D01*
X136143Y226496D01*
X136129Y226621D01*
X136122Y226748D01*
X136109Y226794D01*
X136103Y226842D01*
X136061Y226961D01*
X136026Y227082D01*
X136002Y227125D01*
X135986Y227170D01*
X135917Y227276D01*
X135856Y227387D01*
X135816Y227433D01*
X135797Y227463D01*
X135762Y227497D01*
X135697Y227573D01*
X125973Y237297D01*
X123443Y239827D01*
X123443Y250456D01*
X123429Y250582D01*
X123422Y250708D01*
X123409Y250755D01*
X123403Y250803D01*
X123361Y250922D01*
X123326Y251043D01*
X123302Y251085D01*
X123286Y251131D01*
X123217Y251237D01*
X123156Y251347D01*
X123116Y251393D01*
X123097Y251423D01*
X123062Y251457D01*
X122997Y251533D01*
X117935Y256595D01*
X117935Y264105D01*
X123245Y269415D01*
X130755Y269415D01*
X136065Y264105D01*
X136065Y256595D01*
X131003Y251533D01*
X130924Y251434D01*
X130840Y251341D01*
X130816Y251298D01*
X130786Y251260D01*
X130732Y251146D01*
X130671Y251036D01*
X130658Y250989D01*
X130637Y250945D01*
X130611Y250822D01*
X130576Y250700D01*
X130571Y250639D01*
X130564Y250605D01*
X130565Y250557D01*
X130557Y250456D01*
X130557Y243404D01*
X130571Y243279D01*
X130578Y243152D01*
X130591Y243106D01*
X130597Y243058D01*
X130639Y242939D01*
X130674Y242818D01*
X130698Y242775D01*
X130714Y242730D01*
X130783Y242624D01*
X130844Y242513D01*
X130884Y242467D01*
X130903Y242437D01*
X130938Y242404D01*
X131003Y242327D01*
X143257Y230073D01*
X143257Y111607D01*
X143271Y111481D01*
X143278Y111355D01*
X143291Y111309D01*
X143297Y111261D01*
X143339Y111142D01*
X143374Y111020D01*
X143398Y110978D01*
X143414Y110933D01*
X143483Y110826D01*
X143544Y110716D01*
X143584Y110670D01*
X143603Y110640D01*
X143638Y110606D01*
X143703Y110530D01*
X148845Y105388D01*
X148845Y97812D01*
X143488Y92455D01*
X135912Y92455D01*
G37*
%LPD*%
%LPC*%
G36*
X391897Y27845D02*
X391897Y27845D01*
X388565Y29225D01*
X386015Y31775D01*
X384635Y35107D01*
X384635Y53793D01*
X386015Y57125D01*
X388565Y59675D01*
X389203Y59939D01*
X389270Y59976D01*
X389341Y60004D01*
X389421Y60060D01*
X389508Y60108D01*
X389564Y60160D01*
X389627Y60203D01*
X389693Y60276D01*
X389766Y60342D01*
X389809Y60405D01*
X389860Y60462D01*
X389908Y60548D01*
X389964Y60629D01*
X389992Y60700D01*
X390029Y60767D01*
X390056Y60862D01*
X390092Y60953D01*
X390103Y61029D01*
X390124Y61102D01*
X390136Y61251D01*
X390143Y61298D01*
X390141Y61317D01*
X390143Y61346D01*
X390143Y119583D01*
X401117Y130557D01*
X406693Y130557D01*
X406769Y130565D01*
X406845Y130564D01*
X406942Y130585D01*
X407039Y130597D01*
X407111Y130622D01*
X407186Y130639D01*
X407275Y130681D01*
X407367Y130714D01*
X407432Y130756D01*
X407501Y130788D01*
X407577Y130850D01*
X407660Y130903D01*
X407713Y130958D01*
X407773Y131006D01*
X407834Y131083D01*
X407902Y131154D01*
X407942Y131219D01*
X407989Y131279D01*
X408057Y131412D01*
X408081Y131453D01*
X408087Y131471D01*
X408100Y131497D01*
X408145Y131605D01*
X410431Y133891D01*
X413419Y135129D01*
X429861Y135129D01*
X432849Y133891D01*
X435135Y131605D01*
X436373Y128617D01*
X436373Y125383D01*
X435135Y122395D01*
X432849Y120109D01*
X429861Y118871D01*
X413419Y118871D01*
X410431Y120109D01*
X408145Y122395D01*
X408100Y122503D01*
X408063Y122570D01*
X408035Y122641D01*
X407979Y122721D01*
X407931Y122808D01*
X407880Y122864D01*
X407836Y122927D01*
X407763Y122993D01*
X407697Y123066D01*
X407634Y123109D01*
X407577Y123160D01*
X407491Y123208D01*
X407410Y123264D01*
X407339Y123292D01*
X407272Y123329D01*
X407177Y123356D01*
X407086Y123392D01*
X407010Y123403D01*
X406937Y123424D01*
X406788Y123436D01*
X406741Y123443D01*
X406722Y123441D01*
X406693Y123443D01*
X404694Y123443D01*
X404569Y123429D01*
X404442Y123422D01*
X404396Y123409D01*
X404348Y123403D01*
X404229Y123361D01*
X404108Y123326D01*
X404065Y123302D01*
X404020Y123286D01*
X403914Y123217D01*
X403803Y123156D01*
X403757Y123116D01*
X403727Y123097D01*
X403694Y123062D01*
X403617Y122997D01*
X397703Y117083D01*
X397624Y116984D01*
X397540Y116890D01*
X397516Y116848D01*
X397486Y116810D01*
X397432Y116696D01*
X397371Y116585D01*
X397358Y116538D01*
X397337Y116495D01*
X397311Y116371D01*
X397276Y116250D01*
X397271Y116189D01*
X397264Y116154D01*
X397265Y116106D01*
X397257Y116006D01*
X397257Y61346D01*
X397265Y61270D01*
X397264Y61194D01*
X397285Y61098D01*
X397297Y61000D01*
X397322Y60928D01*
X397339Y60853D01*
X397381Y60764D01*
X397414Y60672D01*
X397456Y60608D01*
X397488Y60539D01*
X397550Y60462D01*
X397603Y60379D01*
X397658Y60326D01*
X397706Y60266D01*
X397783Y60205D01*
X397854Y60137D01*
X397919Y60098D01*
X397979Y60050D01*
X398113Y59982D01*
X398153Y59958D01*
X398171Y59952D01*
X398197Y59939D01*
X398835Y59675D01*
X401385Y57125D01*
X402765Y53793D01*
X402765Y35107D01*
X401385Y31775D01*
X398835Y29225D01*
X395503Y27845D01*
X391897Y27845D01*
G37*
%LPD*%
%LPC*%
G36*
X553697Y140080D02*
X553697Y140080D01*
X546480Y147297D01*
X546480Y157503D01*
X553697Y164720D01*
X553720Y164720D01*
X553746Y164723D01*
X553772Y164721D01*
X553919Y164743D01*
X554066Y164760D01*
X554091Y164768D01*
X554117Y164772D01*
X554255Y164827D01*
X554394Y164877D01*
X554416Y164891D01*
X554441Y164901D01*
X554562Y164986D01*
X554687Y165066D01*
X554705Y165085D01*
X554727Y165100D01*
X554826Y165210D01*
X554929Y165317D01*
X554943Y165339D01*
X554960Y165359D01*
X555032Y165489D01*
X555108Y165616D01*
X555116Y165641D01*
X555129Y165664D01*
X555169Y165807D01*
X555214Y165948D01*
X555216Y165974D01*
X555224Y165999D01*
X555243Y166243D01*
X555243Y250456D01*
X555229Y250582D01*
X555222Y250708D01*
X555209Y250755D01*
X555203Y250803D01*
X555161Y250921D01*
X555126Y251043D01*
X555102Y251085D01*
X555086Y251131D01*
X555017Y251237D01*
X554956Y251347D01*
X554916Y251393D01*
X554897Y251423D01*
X554862Y251457D01*
X554797Y251533D01*
X549735Y256595D01*
X549735Y264105D01*
X555045Y269415D01*
X562555Y269415D01*
X567865Y264105D01*
X567865Y256595D01*
X562803Y251533D01*
X562724Y251434D01*
X562640Y251341D01*
X562616Y251298D01*
X562586Y251260D01*
X562532Y251146D01*
X562471Y251036D01*
X562458Y250989D01*
X562437Y250945D01*
X562411Y250822D01*
X562376Y250700D01*
X562371Y250639D01*
X562364Y250605D01*
X562365Y250557D01*
X562357Y250456D01*
X562357Y166243D01*
X562360Y166217D01*
X562358Y166191D01*
X562380Y166044D01*
X562397Y165897D01*
X562405Y165872D01*
X562409Y165846D01*
X562464Y165708D01*
X562514Y165569D01*
X562528Y165547D01*
X562538Y165522D01*
X562623Y165401D01*
X562703Y165276D01*
X562722Y165258D01*
X562737Y165236D01*
X562847Y165137D01*
X562954Y165034D01*
X562976Y165020D01*
X562996Y165003D01*
X563126Y164931D01*
X563253Y164855D01*
X563278Y164847D01*
X563301Y164834D01*
X563444Y164794D01*
X563585Y164749D01*
X563611Y164747D01*
X563636Y164739D01*
X563880Y164720D01*
X563903Y164720D01*
X571120Y157503D01*
X571120Y147297D01*
X563903Y140080D01*
X553697Y140080D01*
G37*
%LPD*%
%LPC*%
G36*
X366497Y27845D02*
X366497Y27845D01*
X363165Y29225D01*
X360615Y31775D01*
X359235Y35107D01*
X359235Y39370D01*
X359232Y39396D01*
X359234Y39422D01*
X359212Y39569D01*
X359195Y39716D01*
X359187Y39741D01*
X359183Y39767D01*
X359128Y39905D01*
X359078Y40044D01*
X359064Y40066D01*
X359054Y40091D01*
X358969Y40212D01*
X358889Y40337D01*
X358870Y40355D01*
X358855Y40377D01*
X358745Y40476D01*
X358638Y40579D01*
X358616Y40593D01*
X358596Y40610D01*
X358466Y40682D01*
X358339Y40758D01*
X358314Y40766D01*
X358291Y40779D01*
X358148Y40819D01*
X358007Y40864D01*
X357981Y40866D01*
X357956Y40874D01*
X357712Y40893D01*
X334563Y40893D01*
X334487Y40885D01*
X334410Y40886D01*
X334314Y40865D01*
X334217Y40853D01*
X334145Y40828D01*
X334070Y40811D01*
X333981Y40769D01*
X333888Y40736D01*
X333824Y40694D01*
X333755Y40662D01*
X333678Y40600D01*
X333596Y40547D01*
X333542Y40492D01*
X333483Y40444D01*
X333422Y40367D01*
X333353Y40296D01*
X333314Y40231D01*
X333267Y40171D01*
X333199Y40038D01*
X333175Y39997D01*
X333169Y39979D01*
X333155Y39953D01*
X332873Y39270D01*
X330300Y36698D01*
X326939Y35305D01*
X308061Y35305D01*
X304700Y36698D01*
X302128Y39270D01*
X300735Y42631D01*
X300735Y46269D01*
X302128Y49630D01*
X304700Y52202D01*
X308061Y53595D01*
X326939Y53595D01*
X330300Y52202D01*
X332873Y49630D01*
X333155Y48947D01*
X333193Y48880D01*
X333221Y48809D01*
X333277Y48729D01*
X333325Y48642D01*
X333376Y48586D01*
X333420Y48523D01*
X333493Y48457D01*
X333559Y48384D01*
X333622Y48341D01*
X333679Y48290D01*
X333765Y48242D01*
X333846Y48186D01*
X333917Y48158D01*
X333984Y48121D01*
X334078Y48094D01*
X334170Y48058D01*
X334245Y48047D01*
X334319Y48026D01*
X334468Y48014D01*
X334515Y48007D01*
X334534Y48009D01*
X334563Y48007D01*
X357712Y48007D01*
X357738Y48010D01*
X357764Y48008D01*
X357911Y48030D01*
X358058Y48047D01*
X358083Y48055D01*
X358109Y48059D01*
X358247Y48114D01*
X358386Y48164D01*
X358408Y48178D01*
X358433Y48188D01*
X358554Y48273D01*
X358679Y48353D01*
X358697Y48372D01*
X358719Y48387D01*
X358818Y48497D01*
X358921Y48604D01*
X358935Y48626D01*
X358952Y48646D01*
X359024Y48776D01*
X359100Y48903D01*
X359108Y48928D01*
X359121Y48951D01*
X359161Y49094D01*
X359206Y49235D01*
X359208Y49261D01*
X359216Y49286D01*
X359235Y49530D01*
X359235Y53793D01*
X360615Y57125D01*
X363165Y59675D01*
X366497Y61055D01*
X370103Y61055D01*
X373435Y59675D01*
X375985Y57125D01*
X377365Y53793D01*
X377365Y35107D01*
X375985Y31775D01*
X373435Y29225D01*
X370103Y27845D01*
X366497Y27845D01*
G37*
%LPD*%
%LPC*%
G36*
X569697Y27845D02*
X569697Y27845D01*
X566365Y29225D01*
X563815Y31775D01*
X562435Y35107D01*
X562435Y39370D01*
X562432Y39396D01*
X562434Y39422D01*
X562412Y39569D01*
X562395Y39716D01*
X562387Y39741D01*
X562383Y39767D01*
X562328Y39905D01*
X562278Y40044D01*
X562264Y40066D01*
X562254Y40091D01*
X562169Y40212D01*
X562089Y40337D01*
X562070Y40355D01*
X562055Y40377D01*
X561945Y40476D01*
X561838Y40579D01*
X561816Y40593D01*
X561796Y40610D01*
X561666Y40682D01*
X561539Y40758D01*
X561514Y40766D01*
X561491Y40779D01*
X561348Y40819D01*
X561207Y40864D01*
X561181Y40866D01*
X561156Y40874D01*
X560912Y40893D01*
X537763Y40893D01*
X537687Y40885D01*
X537610Y40886D01*
X537514Y40865D01*
X537417Y40853D01*
X537345Y40828D01*
X537270Y40811D01*
X537181Y40769D01*
X537088Y40736D01*
X537024Y40694D01*
X536955Y40662D01*
X536878Y40600D01*
X536796Y40547D01*
X536742Y40492D01*
X536683Y40444D01*
X536622Y40367D01*
X536553Y40296D01*
X536514Y40231D01*
X536467Y40171D01*
X536399Y40038D01*
X536375Y39997D01*
X536369Y39979D01*
X536355Y39953D01*
X536073Y39270D01*
X533500Y36698D01*
X530139Y35305D01*
X511261Y35305D01*
X507900Y36698D01*
X505328Y39270D01*
X503935Y42631D01*
X503935Y46269D01*
X505328Y49630D01*
X507900Y52202D01*
X511261Y53595D01*
X530139Y53595D01*
X533500Y52202D01*
X536073Y49630D01*
X536355Y48947D01*
X536393Y48880D01*
X536421Y48809D01*
X536477Y48729D01*
X536525Y48642D01*
X536576Y48586D01*
X536620Y48523D01*
X536693Y48457D01*
X536759Y48384D01*
X536822Y48341D01*
X536879Y48290D01*
X536965Y48242D01*
X537046Y48186D01*
X537117Y48158D01*
X537184Y48121D01*
X537278Y48094D01*
X537370Y48058D01*
X537445Y48047D01*
X537519Y48026D01*
X537668Y48014D01*
X537715Y48007D01*
X537734Y48009D01*
X537763Y48007D01*
X560912Y48007D01*
X560938Y48010D01*
X560964Y48008D01*
X561111Y48030D01*
X561258Y48047D01*
X561283Y48055D01*
X561309Y48059D01*
X561447Y48114D01*
X561586Y48164D01*
X561608Y48178D01*
X561633Y48188D01*
X561754Y48273D01*
X561879Y48353D01*
X561897Y48372D01*
X561919Y48387D01*
X562018Y48497D01*
X562121Y48604D01*
X562135Y48626D01*
X562152Y48646D01*
X562224Y48776D01*
X562300Y48903D01*
X562308Y48928D01*
X562321Y48951D01*
X562361Y49094D01*
X562406Y49235D01*
X562408Y49261D01*
X562416Y49286D01*
X562435Y49530D01*
X562435Y53793D01*
X563815Y57125D01*
X566365Y59675D01*
X569697Y61055D01*
X573303Y61055D01*
X576635Y59675D01*
X579185Y57125D01*
X580565Y53793D01*
X580565Y35107D01*
X579185Y31775D01*
X576635Y29225D01*
X573303Y27845D01*
X569697Y27845D01*
G37*
%LPD*%
%LPC*%
G36*
X161312Y92455D02*
X161312Y92455D01*
X155955Y97812D01*
X155955Y105388D01*
X161312Y110745D01*
X168888Y110745D01*
X174245Y105388D01*
X174245Y97812D01*
X168888Y92455D01*
X161312Y92455D01*
G37*
%LPD*%
%LPC*%
G36*
X186712Y92455D02*
X186712Y92455D01*
X181355Y97812D01*
X181355Y105388D01*
X186712Y110745D01*
X194288Y110745D01*
X199645Y105388D01*
X199645Y97812D01*
X194288Y92455D01*
X186712Y92455D01*
G37*
%LPD*%
%LPC*%
G36*
X351845Y276685D02*
X351845Y276685D01*
X346535Y281995D01*
X346535Y289505D01*
X351845Y294815D01*
X359355Y294815D01*
X364665Y289505D01*
X364665Y281995D01*
X359355Y276685D01*
X351845Y276685D01*
G37*
%LPD*%
%LPC*%
G36*
X555045Y276685D02*
X555045Y276685D01*
X549735Y281995D01*
X549735Y289505D01*
X555045Y294815D01*
X562555Y294815D01*
X567865Y289505D01*
X567865Y281995D01*
X562555Y276685D01*
X555045Y276685D01*
G37*
%LPD*%
%LPC*%
G36*
X275645Y276685D02*
X275645Y276685D01*
X270335Y281995D01*
X270335Y289505D01*
X275645Y294815D01*
X283155Y294815D01*
X288465Y289505D01*
X288465Y281995D01*
X283155Y276685D01*
X275645Y276685D01*
G37*
%LPD*%
%LPC*%
G36*
X224845Y276685D02*
X224845Y276685D01*
X219535Y281995D01*
X219535Y289505D01*
X224845Y294815D01*
X232355Y294815D01*
X237665Y289505D01*
X237665Y281995D01*
X232355Y276685D01*
X224845Y276685D01*
G37*
%LPD*%
%LPC*%
G36*
X199445Y276685D02*
X199445Y276685D01*
X194135Y281995D01*
X194135Y289505D01*
X199445Y294815D01*
X206955Y294815D01*
X212265Y289505D01*
X212265Y281995D01*
X206955Y276685D01*
X199445Y276685D01*
G37*
%LPD*%
%LPC*%
G36*
X174045Y276685D02*
X174045Y276685D01*
X168735Y281995D01*
X168735Y289505D01*
X174045Y294815D01*
X181555Y294815D01*
X186865Y289505D01*
X186865Y281995D01*
X181555Y276685D01*
X174045Y276685D01*
G37*
%LPD*%
%LPC*%
G36*
X402645Y276685D02*
X402645Y276685D01*
X397335Y281995D01*
X397335Y289505D01*
X402645Y294815D01*
X410155Y294815D01*
X415465Y289505D01*
X415465Y281995D01*
X410155Y276685D01*
X402645Y276685D01*
G37*
%LPD*%
%LPC*%
G36*
X428045Y251285D02*
X428045Y251285D01*
X422735Y256595D01*
X422735Y264105D01*
X428045Y269415D01*
X435555Y269415D01*
X440865Y264105D01*
X440865Y256595D01*
X435555Y251285D01*
X428045Y251285D01*
G37*
%LPD*%
%LPC*%
G36*
X529645Y276685D02*
X529645Y276685D01*
X524335Y281995D01*
X524335Y289505D01*
X529645Y294815D01*
X537155Y294815D01*
X542465Y289505D01*
X542465Y281995D01*
X537155Y276685D01*
X529645Y276685D01*
G37*
%LPD*%
%LPC*%
G36*
X478845Y276685D02*
X478845Y276685D01*
X473535Y281995D01*
X473535Y289505D01*
X478845Y294815D01*
X486355Y294815D01*
X491665Y289505D01*
X491665Y281995D01*
X486355Y276685D01*
X478845Y276685D01*
G37*
%LPD*%
%LPC*%
G36*
X250245Y251285D02*
X250245Y251285D01*
X244935Y256595D01*
X244935Y264105D01*
X250245Y269415D01*
X257755Y269415D01*
X263065Y264105D01*
X263065Y256595D01*
X257755Y251285D01*
X250245Y251285D01*
G37*
%LPD*%
%LPC*%
G36*
X428045Y276685D02*
X428045Y276685D01*
X422735Y281995D01*
X422735Y289505D01*
X428045Y294815D01*
X435555Y294815D01*
X440865Y289505D01*
X440865Y281995D01*
X435555Y276685D01*
X428045Y276685D01*
G37*
%LPD*%
%LPC*%
G36*
X224845Y251285D02*
X224845Y251285D01*
X219535Y256595D01*
X219535Y264105D01*
X224845Y269415D01*
X232355Y269415D01*
X237665Y264105D01*
X237665Y256595D01*
X232355Y251285D01*
X224845Y251285D01*
G37*
%LPD*%
%LPC*%
G36*
X580445Y276685D02*
X580445Y276685D01*
X575135Y281995D01*
X575135Y289505D01*
X580445Y294815D01*
X587955Y294815D01*
X593265Y289505D01*
X593265Y281995D01*
X587955Y276685D01*
X580445Y276685D01*
G37*
%LPD*%
%LPC*%
G36*
X174045Y251285D02*
X174045Y251285D01*
X168735Y256595D01*
X168735Y264105D01*
X174045Y269415D01*
X181555Y269415D01*
X186865Y264105D01*
X186865Y256595D01*
X181555Y251285D01*
X174045Y251285D01*
G37*
%LPD*%
%LPC*%
G36*
X301045Y276685D02*
X301045Y276685D01*
X295735Y281995D01*
X295735Y289505D01*
X301045Y294815D01*
X308555Y294815D01*
X313865Y289505D01*
X313865Y281995D01*
X308555Y276685D01*
X301045Y276685D01*
G37*
%LPD*%
%LPC*%
G36*
X377245Y276685D02*
X377245Y276685D01*
X371935Y281995D01*
X371935Y289505D01*
X377245Y294815D01*
X384755Y294815D01*
X390065Y289505D01*
X390065Y281995D01*
X384755Y276685D01*
X377245Y276685D01*
G37*
%LPD*%
%LPC*%
G36*
X275645Y251285D02*
X275645Y251285D01*
X270335Y256595D01*
X270335Y264105D01*
X275645Y269415D01*
X283155Y269415D01*
X288465Y264105D01*
X288465Y256595D01*
X283155Y251285D01*
X275645Y251285D01*
G37*
%LPD*%
%LPC*%
G36*
X269199Y46949D02*
X269199Y46949D01*
X269199Y61777D01*
X270570Y61332D01*
X271983Y60612D01*
X273267Y59679D01*
X274389Y58557D01*
X275322Y57273D01*
X276042Y55860D01*
X276533Y54351D01*
X276781Y52783D01*
X276781Y46949D01*
X269199Y46949D01*
G37*
%LPD*%
%LPC*%
G36*
X472399Y46949D02*
X472399Y46949D01*
X472399Y61777D01*
X473770Y61332D01*
X475183Y60612D01*
X476467Y59679D01*
X477589Y58557D01*
X478522Y57273D01*
X479242Y55860D01*
X479733Y54351D01*
X479981Y52783D01*
X479981Y46949D01*
X472399Y46949D01*
G37*
%LPD*%
%LPC*%
G36*
X472399Y41951D02*
X472399Y41951D01*
X479981Y41951D01*
X479981Y36117D01*
X479733Y34549D01*
X479242Y33040D01*
X478522Y31627D01*
X477589Y30343D01*
X476467Y29221D01*
X475183Y28288D01*
X473770Y27568D01*
X472399Y27123D01*
X472399Y41951D01*
G37*
%LPD*%
%LPC*%
G36*
X269199Y41951D02*
X269199Y41951D01*
X276781Y41951D01*
X276781Y36117D01*
X276533Y34549D01*
X276042Y33040D01*
X275322Y31627D01*
X274389Y30343D01*
X273267Y29221D01*
X271983Y28288D01*
X270570Y27568D01*
X269199Y27123D01*
X269199Y41951D01*
G37*
%LPD*%
%LPC*%
G36*
X459819Y46949D02*
X459819Y46949D01*
X459819Y52783D01*
X460067Y54351D01*
X460558Y55860D01*
X461278Y57273D01*
X462211Y58557D01*
X463333Y59679D01*
X464617Y60612D01*
X466030Y61332D01*
X467401Y61777D01*
X467401Y46949D01*
X459819Y46949D01*
G37*
%LPD*%
%LPC*%
G36*
X256619Y46949D02*
X256619Y46949D01*
X256619Y52783D01*
X256867Y54351D01*
X257358Y55860D01*
X258078Y57273D01*
X259011Y58557D01*
X260133Y59679D01*
X261417Y60612D01*
X262830Y61332D01*
X264201Y61777D01*
X264201Y46949D01*
X256619Y46949D01*
G37*
%LPD*%
%LPC*%
G36*
X466030Y27568D02*
X466030Y27568D01*
X464617Y28288D01*
X463333Y29221D01*
X462211Y30343D01*
X461278Y31627D01*
X460558Y33040D01*
X460067Y34549D01*
X459819Y36117D01*
X459819Y41951D01*
X467401Y41951D01*
X467401Y27123D01*
X466030Y27568D01*
G37*
%LPD*%
%LPC*%
G36*
X262830Y27568D02*
X262830Y27568D01*
X261417Y28288D01*
X260133Y29221D01*
X259011Y30343D01*
X258078Y31627D01*
X257358Y33040D01*
X256867Y34549D01*
X256619Y36117D01*
X256619Y41951D01*
X264201Y41951D01*
X264201Y27123D01*
X262830Y27568D01*
G37*
%LPD*%
%LPC*%
G36*
X637539Y154939D02*
X637539Y154939D01*
X637539Y165736D01*
X640524Y165736D01*
X648336Y157924D01*
X648336Y154939D01*
X637539Y154939D01*
G37*
%LPD*%
%LPC*%
G36*
X621664Y154939D02*
X621664Y154939D01*
X621664Y157924D01*
X629476Y165736D01*
X632461Y165736D01*
X632461Y154939D01*
X621664Y154939D01*
G37*
%LPD*%
%LPC*%
G36*
X637539Y139064D02*
X637539Y139064D01*
X637539Y149861D01*
X648336Y149861D01*
X648336Y146876D01*
X640524Y139064D01*
X637539Y139064D01*
G37*
%LPD*%
%LPC*%
G36*
X629476Y139064D02*
X629476Y139064D01*
X621664Y146876D01*
X621664Y149861D01*
X632461Y149861D01*
X632461Y139064D01*
X629476Y139064D01*
G37*
%LPD*%
%LPC*%
G36*
X494791Y179831D02*
X494791Y179831D01*
X494791Y186945D01*
X500084Y186945D01*
X501506Y186720D01*
X502874Y186275D01*
X504157Y185621D01*
X505321Y184775D01*
X506339Y183757D01*
X507185Y182593D01*
X507839Y181310D01*
X508284Y179942D01*
X508301Y179831D01*
X494791Y179831D01*
G37*
%LPD*%
%LPC*%
G36*
X423671Y179831D02*
X423671Y179831D01*
X423671Y186945D01*
X428964Y186945D01*
X430386Y186720D01*
X431754Y186275D01*
X433037Y185621D01*
X434201Y184775D01*
X435219Y183757D01*
X436065Y182593D01*
X436719Y181310D01*
X437164Y179942D01*
X437181Y179831D01*
X423671Y179831D01*
G37*
%LPD*%
%LPC*%
G36*
X477219Y179831D02*
X477219Y179831D01*
X477236Y179942D01*
X477681Y181310D01*
X478335Y182593D01*
X479181Y183757D01*
X480199Y184775D01*
X481363Y185621D01*
X482646Y186275D01*
X484014Y186720D01*
X485436Y186945D01*
X490729Y186945D01*
X490729Y179831D01*
X477219Y179831D01*
G37*
%LPD*%
%LPC*%
G36*
X406099Y179831D02*
X406099Y179831D01*
X406116Y179942D01*
X406561Y181310D01*
X407215Y182593D01*
X408061Y183757D01*
X409079Y184775D01*
X410243Y185621D01*
X411526Y186275D01*
X412894Y186720D01*
X414316Y186945D01*
X419609Y186945D01*
X419609Y179831D01*
X406099Y179831D01*
G37*
%LPD*%
%LPC*%
G36*
X423671Y168655D02*
X423671Y168655D01*
X423671Y175769D01*
X437181Y175769D01*
X437164Y175658D01*
X436719Y174290D01*
X436065Y173007D01*
X435219Y171843D01*
X434201Y170825D01*
X433037Y169979D01*
X431754Y169325D01*
X430386Y168880D01*
X428964Y168655D01*
X423671Y168655D01*
G37*
%LPD*%
%LPC*%
G36*
X494791Y168655D02*
X494791Y168655D01*
X494791Y175769D01*
X508301Y175769D01*
X508284Y175658D01*
X507839Y174290D01*
X507185Y173007D01*
X506339Y171843D01*
X505321Y170825D01*
X504157Y169979D01*
X502874Y169325D01*
X501506Y168880D01*
X500084Y168655D01*
X494791Y168655D01*
G37*
%LPD*%
%LPC*%
G36*
X485436Y168655D02*
X485436Y168655D01*
X484014Y168880D01*
X482646Y169325D01*
X481363Y169979D01*
X480199Y170825D01*
X479181Y171843D01*
X478335Y173007D01*
X477681Y174290D01*
X477236Y175658D01*
X477219Y175769D01*
X490729Y175769D01*
X490729Y168655D01*
X485436Y168655D01*
G37*
%LPD*%
%LPC*%
G36*
X414316Y168655D02*
X414316Y168655D01*
X412894Y168880D01*
X411526Y169325D01*
X410243Y169979D01*
X409079Y170825D01*
X408061Y171843D01*
X407215Y173007D01*
X406561Y174290D01*
X406116Y175658D01*
X406099Y175769D01*
X419609Y175769D01*
X419609Y168655D01*
X414316Y168655D01*
G37*
%LPD*%
%LPC*%
G36*
X91439Y104139D02*
X91439Y104139D01*
X91439Y111761D01*
X93109Y111761D01*
X99061Y105809D01*
X99061Y104139D01*
X91439Y104139D01*
G37*
%LPD*%
%LPC*%
G36*
X78739Y104139D02*
X78739Y104139D01*
X78739Y105809D01*
X84691Y111761D01*
X86361Y111761D01*
X86361Y104139D01*
X78739Y104139D01*
G37*
%LPD*%
%LPC*%
G36*
X91439Y91439D02*
X91439Y91439D01*
X91439Y99061D01*
X99061Y99061D01*
X99061Y97391D01*
X93109Y91439D01*
X91439Y91439D01*
G37*
%LPD*%
%LPC*%
G36*
X84691Y91439D02*
X84691Y91439D01*
X78739Y97391D01*
X78739Y99061D01*
X86361Y99061D01*
X86361Y91439D01*
X84691Y91439D01*
G37*
%LPD*%
%LPC*%
G36*
X205699Y262849D02*
X205699Y262849D01*
X205699Y270431D01*
X207376Y270431D01*
X213281Y264526D01*
X213281Y262849D01*
X205699Y262849D01*
G37*
%LPD*%
%LPC*%
G36*
X510499Y288249D02*
X510499Y288249D01*
X510499Y295831D01*
X512176Y295831D01*
X518081Y289926D01*
X518081Y288249D01*
X510499Y288249D01*
G37*
%LPD*%
%LPC*%
G36*
X332699Y288249D02*
X332699Y288249D01*
X332699Y295831D01*
X334376Y295831D01*
X340281Y289926D01*
X340281Y288249D01*
X332699Y288249D01*
G37*
%LPD*%
%LPC*%
G36*
X256499Y288249D02*
X256499Y288249D01*
X256499Y295831D01*
X258176Y295831D01*
X264081Y289926D01*
X264081Y288249D01*
X256499Y288249D01*
G37*
%LPD*%
%LPC*%
G36*
X586699Y262849D02*
X586699Y262849D01*
X586699Y270431D01*
X588376Y270431D01*
X594281Y264526D01*
X594281Y262849D01*
X586699Y262849D01*
G37*
%LPD*%
%LPC*%
G36*
X408899Y262849D02*
X408899Y262849D01*
X408899Y270431D01*
X410576Y270431D01*
X416481Y264526D01*
X416481Y262849D01*
X408899Y262849D01*
G37*
%LPD*%
%LPC*%
G36*
X154899Y288249D02*
X154899Y288249D01*
X154899Y295831D01*
X156576Y295831D01*
X162481Y289926D01*
X162481Y288249D01*
X154899Y288249D01*
G37*
%LPD*%
%LPC*%
G36*
X459699Y288249D02*
X459699Y288249D01*
X459699Y295831D01*
X461376Y295831D01*
X467281Y289926D01*
X467281Y288249D01*
X459699Y288249D01*
G37*
%LPD*%
%LPC*%
G36*
X320119Y288249D02*
X320119Y288249D01*
X320119Y289926D01*
X326024Y295831D01*
X327701Y295831D01*
X327701Y288249D01*
X320119Y288249D01*
G37*
%LPD*%
%LPC*%
G36*
X243919Y288249D02*
X243919Y288249D01*
X243919Y289926D01*
X249824Y295831D01*
X251501Y295831D01*
X251501Y288249D01*
X243919Y288249D01*
G37*
%LPD*%
%LPC*%
G36*
X193119Y262849D02*
X193119Y262849D01*
X193119Y264526D01*
X199024Y270431D01*
X200701Y270431D01*
X200701Y262849D01*
X193119Y262849D01*
G37*
%LPD*%
%LPC*%
G36*
X396319Y262849D02*
X396319Y262849D01*
X396319Y264526D01*
X402224Y270431D01*
X403901Y270431D01*
X403901Y262849D01*
X396319Y262849D01*
G37*
%LPD*%
%LPC*%
G36*
X497919Y288249D02*
X497919Y288249D01*
X497919Y289926D01*
X503824Y295831D01*
X505501Y295831D01*
X505501Y288249D01*
X497919Y288249D01*
G37*
%LPD*%
%LPC*%
G36*
X142319Y288249D02*
X142319Y288249D01*
X142319Y289926D01*
X148224Y295831D01*
X149901Y295831D01*
X149901Y288249D01*
X142319Y288249D01*
G37*
%LPD*%
%LPC*%
G36*
X447119Y288249D02*
X447119Y288249D01*
X447119Y289926D01*
X453024Y295831D01*
X454701Y295831D01*
X454701Y288249D01*
X447119Y288249D01*
G37*
%LPD*%
%LPC*%
G36*
X574119Y262849D02*
X574119Y262849D01*
X574119Y264526D01*
X580024Y270431D01*
X581701Y270431D01*
X581701Y262849D01*
X574119Y262849D01*
G37*
%LPD*%
%LPC*%
G36*
X205699Y250269D02*
X205699Y250269D01*
X205699Y257851D01*
X213281Y257851D01*
X213281Y256174D01*
X207376Y250269D01*
X205699Y250269D01*
G37*
%LPD*%
%LPC*%
G36*
X256499Y275669D02*
X256499Y275669D01*
X256499Y283251D01*
X264081Y283251D01*
X264081Y281574D01*
X258176Y275669D01*
X256499Y275669D01*
G37*
%LPD*%
%LPC*%
G36*
X408899Y250269D02*
X408899Y250269D01*
X408899Y257851D01*
X416481Y257851D01*
X416481Y256174D01*
X410576Y250269D01*
X408899Y250269D01*
G37*
%LPD*%
%LPC*%
G36*
X586699Y250269D02*
X586699Y250269D01*
X586699Y257851D01*
X594281Y257851D01*
X594281Y256174D01*
X588376Y250269D01*
X586699Y250269D01*
G37*
%LPD*%
%LPC*%
G36*
X459699Y275669D02*
X459699Y275669D01*
X459699Y283251D01*
X467281Y283251D01*
X467281Y281574D01*
X461376Y275669D01*
X459699Y275669D01*
G37*
%LPD*%
%LPC*%
G36*
X510499Y275669D02*
X510499Y275669D01*
X510499Y283251D01*
X518081Y283251D01*
X518081Y281574D01*
X512176Y275669D01*
X510499Y275669D01*
G37*
%LPD*%
%LPC*%
G36*
X332699Y275669D02*
X332699Y275669D01*
X332699Y283251D01*
X340281Y283251D01*
X340281Y281574D01*
X334376Y275669D01*
X332699Y275669D01*
G37*
%LPD*%
%LPC*%
G36*
X154899Y275669D02*
X154899Y275669D01*
X154899Y283251D01*
X162481Y283251D01*
X162481Y281574D01*
X156576Y275669D01*
X154899Y275669D01*
G37*
%LPD*%
%LPC*%
G36*
X148224Y275669D02*
X148224Y275669D01*
X142319Y281574D01*
X142319Y283251D01*
X149901Y283251D01*
X149901Y275669D01*
X148224Y275669D01*
G37*
%LPD*%
%LPC*%
G36*
X199024Y250269D02*
X199024Y250269D01*
X193119Y256174D01*
X193119Y257851D01*
X200701Y257851D01*
X200701Y250269D01*
X199024Y250269D01*
G37*
%LPD*%
%LPC*%
G36*
X580024Y250269D02*
X580024Y250269D01*
X574119Y256174D01*
X574119Y257851D01*
X581701Y257851D01*
X581701Y250269D01*
X580024Y250269D01*
G37*
%LPD*%
%LPC*%
G36*
X402224Y250269D02*
X402224Y250269D01*
X396319Y256174D01*
X396319Y257851D01*
X403901Y257851D01*
X403901Y250269D01*
X402224Y250269D01*
G37*
%LPD*%
%LPC*%
G36*
X249824Y275669D02*
X249824Y275669D01*
X243919Y281574D01*
X243919Y283251D01*
X251501Y283251D01*
X251501Y275669D01*
X249824Y275669D01*
G37*
%LPD*%
%LPC*%
G36*
X326024Y275669D02*
X326024Y275669D01*
X320119Y281574D01*
X320119Y283251D01*
X327701Y283251D01*
X327701Y275669D01*
X326024Y275669D01*
G37*
%LPD*%
%LPC*%
G36*
X453024Y275669D02*
X453024Y275669D01*
X447119Y281574D01*
X447119Y283251D01*
X454701Y283251D01*
X454701Y275669D01*
X453024Y275669D01*
G37*
%LPD*%
%LPC*%
G36*
X503824Y275669D02*
X503824Y275669D01*
X497919Y281574D01*
X497919Y283251D01*
X505501Y283251D01*
X505501Y275669D01*
X503824Y275669D01*
G37*
%LPD*%
D10*
X635000Y152400D03*
X558800Y152400D03*
D11*
X101600Y260350D03*
X101600Y285750D03*
X127000Y260350D03*
X127000Y285750D03*
X152400Y260350D03*
X152400Y285750D03*
X177800Y260350D03*
X177800Y285750D03*
X203200Y260350D03*
X203200Y285750D03*
X228600Y260350D03*
X228600Y285750D03*
X254000Y260350D03*
X254000Y285750D03*
X279400Y260350D03*
X279400Y285750D03*
X304800Y260350D03*
X304800Y285750D03*
X330200Y260350D03*
X330200Y285750D03*
X355600Y260350D03*
X355600Y285750D03*
X381000Y260350D03*
X381000Y285750D03*
X406400Y260350D03*
X406400Y285750D03*
X431800Y260350D03*
X431800Y285750D03*
X457200Y260350D03*
X457200Y285750D03*
X482600Y260350D03*
X482600Y285750D03*
X508000Y260350D03*
X508000Y285750D03*
X533400Y260350D03*
X533400Y285750D03*
X558800Y260350D03*
X558800Y285750D03*
X584200Y260350D03*
X584200Y285750D03*
D12*
X428244Y127000D02*
X415036Y127000D01*
X415036Y177800D02*
X428244Y177800D01*
X428244Y152400D02*
X415036Y152400D01*
X486156Y127000D02*
X499364Y127000D01*
X499364Y177800D02*
X486156Y177800D01*
X486156Y152400D02*
X499364Y152400D01*
D13*
X444500Y219050D03*
X444500Y200050D03*
D14*
X190500Y101600D03*
X165100Y101600D03*
X139700Y101600D03*
X114300Y101600D03*
X88900Y101600D03*
X63500Y101600D03*
D15*
X355600Y158750D03*
D16*
X368300Y133350D03*
X342900Y133350D03*
X330200Y158750D03*
D13*
X469900Y219050D03*
X469900Y200050D03*
X381000Y200050D03*
X381000Y219050D03*
X355600Y200050D03*
X355600Y219050D03*
X330200Y200050D03*
X330200Y219050D03*
D17*
X241300Y51990D02*
X241300Y36910D01*
X266700Y36910D02*
X266700Y51990D01*
D18*
X309880Y69850D02*
X325120Y69850D01*
X325120Y44450D02*
X309880Y44450D01*
X309880Y19050D02*
X325120Y19050D01*
X513080Y69850D02*
X528320Y69850D01*
X528320Y44450D02*
X513080Y44450D01*
X513080Y19050D02*
X528320Y19050D01*
D17*
X444500Y36910D02*
X444500Y51990D01*
X469900Y51990D02*
X469900Y36910D01*
X368300Y36910D02*
X368300Y51990D01*
X393700Y51990D02*
X393700Y36910D01*
X571500Y36910D02*
X571500Y51990D01*
X596900Y51990D02*
X596900Y36910D01*
D19*
X101600Y260350D02*
X88900Y260350D01*
X63500Y234950D01*
X63500Y101600D01*
X114300Y38100D02*
X177800Y38100D01*
X304800Y165100D01*
X304800Y260350D01*
X114300Y38100D02*
X63500Y88900D01*
X63500Y101600D01*
X101600Y285750D02*
X127000Y285750D01*
X317500Y19050D02*
X520700Y19050D01*
X317500Y19050D02*
X101600Y19050D01*
X44450Y76200D01*
X44450Y247650D02*
X82550Y285750D01*
X101600Y285750D01*
X44450Y247650D02*
X44450Y76200D01*
D20*
X558800Y152400D02*
X558800Y260350D01*
X469900Y228600D02*
X469900Y219050D01*
X469900Y228600D02*
X477520Y236220D01*
X528320Y236220D01*
X533400Y241300D01*
X533400Y260350D01*
X444500Y233680D02*
X444500Y219050D01*
X444500Y233680D02*
X455930Y245110D01*
X502920Y245110D02*
X508000Y250190D01*
X508000Y260350D01*
X502920Y245110D02*
X455930Y245110D01*
X381000Y260350D02*
X381000Y219050D01*
X355600Y219050D02*
X355600Y260350D01*
X330200Y260350D02*
X330200Y219050D01*
X133350Y82550D02*
X114300Y101600D01*
X196850Y82550D02*
X209550Y95250D01*
X209550Y184150D01*
X152400Y241300D01*
X152400Y260350D01*
X133350Y82550D02*
X196850Y82550D01*
X139700Y101600D02*
X139700Y228600D01*
X127000Y241300D01*
X127000Y260350D01*
X368300Y171450D02*
X368300Y133350D01*
X368300Y171450D02*
X381000Y184150D01*
X381000Y200050D01*
X342900Y171450D02*
X342900Y133350D01*
X342900Y171450D02*
X355600Y184150D01*
X355600Y200050D01*
X330200Y200050D02*
X330200Y158750D01*
X469900Y158140D02*
X476250Y151790D01*
X469900Y158140D02*
X469900Y200050D01*
X492760Y152400D02*
X492150Y151790D01*
X476250Y151790D01*
X444500Y158750D02*
X444500Y200050D01*
X444500Y158750D02*
X438150Y152400D01*
X421640Y152400D01*
X421640Y127000D02*
X402590Y127000D01*
X393700Y118110D01*
X393700Y44450D01*
X492760Y127000D02*
X539750Y127000D01*
X596900Y69850D01*
X596900Y44450D01*
X368300Y44450D02*
X317500Y44450D01*
X520700Y44450D02*
X571500Y44450D01*
D19*
X444500Y44450D02*
X444500Y63500D01*
X450850Y69850D01*
X520700Y69850D01*
X241300Y63500D02*
X241300Y44450D01*
X241300Y63500D02*
X247650Y69850D01*
X317500Y69850D01*
M02*
