M48
;GenerationSoftware,Autodesk,EAGLE,9.6.2*%
;CreationDate,2024-01-17T13:39:57Z*%
FMAT,2
ICI,OFF
METRIC,TZ,000.000
T5C0.813
T4C0.900
T3C1.000
T2C1.016
T1C3.000
%
G90
M71
T1
X2540Y29845
X2540Y2540
X66040Y2540
X66040Y29845
T2
X63500Y15240
X55880Y15240
X31750Y1905
X19050Y10160
X16510Y10160
X13970Y10160
X11430Y10160
X8890Y10160
X6350Y10160
X31750Y6985
X31750Y4445
X52070Y6985
X52070Y4445
X52070Y1905
T3
X25400Y26035
X25400Y28575
X27940Y26035
X27940Y28575
X30480Y26035
X30480Y28575
X33020Y26035
X33020Y28575
X35560Y26035
X35560Y28575
X38100Y26035
X38100Y28575
X40640Y26035
X40640Y28575
X43180Y26035
X43180Y28575
X45720Y26035
X45720Y28575
X48260Y26035
X48260Y28575
X12700Y28575
X50800Y28575
X53340Y26035
X53340Y28575
X55880Y26035
X55880Y28575
X58420Y26035
X58420Y28575
X10160Y26035
X10160Y28575
X12700Y26035
X15240Y26035
X15240Y28575
X17780Y26035
X24130Y4445
X26670Y4445
X17780Y28575
X20320Y26035
X50800Y26035
X20320Y28575
X22860Y26035
X22860Y28575
X44450Y4445
X46990Y4445
X36830Y4445
X39370Y4445
X57150Y4445
X59690Y4445
T4
X35560Y15875
X36830Y13335
X34290Y13335
X33020Y15875
T5
X49276Y17780
X49276Y15240
X42164Y12700
X42164Y17780
X42164Y15240
X49276Y12700
M30