G04 EAGLE Gerber RS-274X export*
G75*
%MOMM*%
%FSLAX34Y34*%
%LPD*%
%IN*%
%IPPOS*%
%AMOC8*
5,1,8,0,0,1.08239X$1,22.5*%
G01*
%ADD10C,0.254000*%


D10*
X0Y25400D02*
X97Y23186D01*
X386Y20989D01*
X865Y18826D01*
X1532Y16713D01*
X2380Y14666D01*
X3403Y12700D01*
X4594Y10831D01*
X5942Y9073D01*
X7440Y7440D01*
X9073Y5942D01*
X10831Y4594D01*
X12700Y3403D01*
X14666Y2380D01*
X16713Y1532D01*
X18826Y865D01*
X20989Y386D01*
X23186Y97D01*
X25400Y0D01*
X660400Y0D01*
X662614Y97D01*
X664811Y386D01*
X666974Y865D01*
X669087Y1532D01*
X671135Y2380D01*
X673100Y3403D01*
X674969Y4594D01*
X676727Y5942D01*
X678361Y7440D01*
X679858Y9073D01*
X681206Y10831D01*
X682397Y12700D01*
X683420Y14666D01*
X684268Y16713D01*
X684935Y18826D01*
X685414Y20989D01*
X685703Y23186D01*
X685800Y25400D01*
X685800Y298450D01*
X685703Y300664D01*
X685414Y302861D01*
X684935Y305024D01*
X684268Y307137D01*
X683420Y309185D01*
X682397Y311150D01*
X681206Y313019D01*
X679858Y314777D01*
X678361Y316411D01*
X676727Y317908D01*
X674969Y319256D01*
X673100Y320447D01*
X671135Y321470D01*
X669087Y322318D01*
X666974Y322985D01*
X664811Y323464D01*
X662614Y323753D01*
X660400Y323850D01*
X25400Y323850D01*
X23186Y323753D01*
X20989Y323464D01*
X18826Y322985D01*
X16713Y322318D01*
X14666Y321470D01*
X12700Y320447D01*
X10831Y319256D01*
X9073Y317908D01*
X7440Y316411D01*
X5942Y314777D01*
X4594Y313019D01*
X3403Y311150D01*
X2380Y309185D01*
X1532Y307137D01*
X865Y305024D01*
X386Y302861D01*
X97Y300664D01*
X0Y298450D01*
X0Y25400D01*
X40400Y297914D02*
X40324Y296846D01*
X40171Y295785D01*
X39943Y294738D01*
X39641Y293710D01*
X39267Y292706D01*
X38822Y291731D01*
X38308Y290791D01*
X37729Y289890D01*
X37087Y289032D01*
X36385Y288222D01*
X35628Y287465D01*
X34818Y286763D01*
X33960Y286121D01*
X33059Y285542D01*
X32119Y285028D01*
X31144Y284583D01*
X30140Y284209D01*
X29112Y283907D01*
X28065Y283679D01*
X27004Y283526D01*
X25936Y283450D01*
X24864Y283450D01*
X23796Y283526D01*
X22735Y283679D01*
X21688Y283907D01*
X20660Y284209D01*
X19656Y284583D01*
X18681Y285028D01*
X17741Y285542D01*
X16840Y286121D01*
X15982Y286763D01*
X15172Y287465D01*
X14415Y288222D01*
X13713Y289032D01*
X13071Y289890D01*
X12492Y290791D01*
X11978Y291731D01*
X11533Y292706D01*
X11159Y293710D01*
X10857Y294738D01*
X10629Y295785D01*
X10476Y296846D01*
X10400Y297914D01*
X10400Y298986D01*
X10476Y300054D01*
X10629Y301115D01*
X10857Y302162D01*
X11159Y303190D01*
X11533Y304194D01*
X11978Y305169D01*
X12492Y306109D01*
X13071Y307010D01*
X13713Y307868D01*
X14415Y308678D01*
X15172Y309435D01*
X15982Y310137D01*
X16840Y310779D01*
X17741Y311358D01*
X18681Y311872D01*
X19656Y312317D01*
X20660Y312691D01*
X21688Y312993D01*
X22735Y313221D01*
X23796Y313374D01*
X24864Y313450D01*
X25936Y313450D01*
X27004Y313374D01*
X28065Y313221D01*
X29112Y312993D01*
X30140Y312691D01*
X31144Y312317D01*
X32119Y311872D01*
X33059Y311358D01*
X33960Y310779D01*
X34818Y310137D01*
X35628Y309435D01*
X36385Y308678D01*
X37087Y307868D01*
X37729Y307010D01*
X38308Y306109D01*
X38822Y305169D01*
X39267Y304194D01*
X39641Y303190D01*
X39943Y302162D01*
X40171Y301115D01*
X40324Y300054D01*
X40400Y298986D01*
X40400Y297914D01*
X40400Y24864D02*
X40324Y23796D01*
X40171Y22735D01*
X39943Y21688D01*
X39641Y20660D01*
X39267Y19656D01*
X38822Y18681D01*
X38308Y17741D01*
X37729Y16840D01*
X37087Y15982D01*
X36385Y15172D01*
X35628Y14415D01*
X34818Y13713D01*
X33960Y13071D01*
X33059Y12492D01*
X32119Y11978D01*
X31144Y11533D01*
X30140Y11159D01*
X29112Y10857D01*
X28065Y10629D01*
X27004Y10476D01*
X25936Y10400D01*
X24864Y10400D01*
X23796Y10476D01*
X22735Y10629D01*
X21688Y10857D01*
X20660Y11159D01*
X19656Y11533D01*
X18681Y11978D01*
X17741Y12492D01*
X16840Y13071D01*
X15982Y13713D01*
X15172Y14415D01*
X14415Y15172D01*
X13713Y15982D01*
X13071Y16840D01*
X12492Y17741D01*
X11978Y18681D01*
X11533Y19656D01*
X11159Y20660D01*
X10857Y21688D01*
X10629Y22735D01*
X10476Y23796D01*
X10400Y24864D01*
X10400Y25936D01*
X10476Y27004D01*
X10629Y28065D01*
X10857Y29112D01*
X11159Y30140D01*
X11533Y31144D01*
X11978Y32119D01*
X12492Y33059D01*
X13071Y33960D01*
X13713Y34818D01*
X14415Y35628D01*
X15172Y36385D01*
X15982Y37087D01*
X16840Y37729D01*
X17741Y38308D01*
X18681Y38822D01*
X19656Y39267D01*
X20660Y39641D01*
X21688Y39943D01*
X22735Y40171D01*
X23796Y40324D01*
X24864Y40400D01*
X25936Y40400D01*
X27004Y40324D01*
X28065Y40171D01*
X29112Y39943D01*
X30140Y39641D01*
X31144Y39267D01*
X32119Y38822D01*
X33059Y38308D01*
X33960Y37729D01*
X34818Y37087D01*
X35628Y36385D01*
X36385Y35628D01*
X37087Y34818D01*
X37729Y33960D01*
X38308Y33059D01*
X38822Y32119D01*
X39267Y31144D01*
X39641Y30140D01*
X39943Y29112D01*
X40171Y28065D01*
X40324Y27004D01*
X40400Y25936D01*
X40400Y24864D01*
X675400Y24864D02*
X675324Y23796D01*
X675171Y22735D01*
X674943Y21688D01*
X674641Y20660D01*
X674267Y19656D01*
X673822Y18681D01*
X673308Y17741D01*
X672729Y16840D01*
X672087Y15982D01*
X671385Y15172D01*
X670628Y14415D01*
X669818Y13713D01*
X668960Y13071D01*
X668059Y12492D01*
X667119Y11978D01*
X666144Y11533D01*
X665140Y11159D01*
X664112Y10857D01*
X663065Y10629D01*
X662004Y10476D01*
X660936Y10400D01*
X659864Y10400D01*
X658796Y10476D01*
X657735Y10629D01*
X656688Y10857D01*
X655660Y11159D01*
X654656Y11533D01*
X653681Y11978D01*
X652741Y12492D01*
X651840Y13071D01*
X650982Y13713D01*
X650172Y14415D01*
X649415Y15172D01*
X648713Y15982D01*
X648071Y16840D01*
X647492Y17741D01*
X646978Y18681D01*
X646533Y19656D01*
X646159Y20660D01*
X645857Y21688D01*
X645629Y22735D01*
X645476Y23796D01*
X645400Y24864D01*
X645400Y25936D01*
X645476Y27004D01*
X645629Y28065D01*
X645857Y29112D01*
X646159Y30140D01*
X646533Y31144D01*
X646978Y32119D01*
X647492Y33059D01*
X648071Y33960D01*
X648713Y34818D01*
X649415Y35628D01*
X650172Y36385D01*
X650982Y37087D01*
X651840Y37729D01*
X652741Y38308D01*
X653681Y38822D01*
X654656Y39267D01*
X655660Y39641D01*
X656688Y39943D01*
X657735Y40171D01*
X658796Y40324D01*
X659864Y40400D01*
X660936Y40400D01*
X662004Y40324D01*
X663065Y40171D01*
X664112Y39943D01*
X665140Y39641D01*
X666144Y39267D01*
X667119Y38822D01*
X668059Y38308D01*
X668960Y37729D01*
X669818Y37087D01*
X670628Y36385D01*
X671385Y35628D01*
X672087Y34818D01*
X672729Y33960D01*
X673308Y33059D01*
X673822Y32119D01*
X674267Y31144D01*
X674641Y30140D01*
X674943Y29112D01*
X675171Y28065D01*
X675324Y27004D01*
X675400Y25936D01*
X675400Y24864D01*
X675400Y297914D02*
X675324Y296846D01*
X675171Y295785D01*
X674943Y294738D01*
X674641Y293710D01*
X674267Y292706D01*
X673822Y291731D01*
X673308Y290791D01*
X672729Y289890D01*
X672087Y289032D01*
X671385Y288222D01*
X670628Y287465D01*
X669818Y286763D01*
X668960Y286121D01*
X668059Y285542D01*
X667119Y285028D01*
X666144Y284583D01*
X665140Y284209D01*
X664112Y283907D01*
X663065Y283679D01*
X662004Y283526D01*
X660936Y283450D01*
X659864Y283450D01*
X658796Y283526D01*
X657735Y283679D01*
X656688Y283907D01*
X655660Y284209D01*
X654656Y284583D01*
X653681Y285028D01*
X652741Y285542D01*
X651840Y286121D01*
X650982Y286763D01*
X650172Y287465D01*
X649415Y288222D01*
X648713Y289032D01*
X648071Y289890D01*
X647492Y290791D01*
X646978Y291731D01*
X646533Y292706D01*
X646159Y293710D01*
X645857Y294738D01*
X645629Y295785D01*
X645476Y296846D01*
X645400Y297914D01*
X645400Y298986D01*
X645476Y300054D01*
X645629Y301115D01*
X645857Y302162D01*
X646159Y303190D01*
X646533Y304194D01*
X646978Y305169D01*
X647492Y306109D01*
X648071Y307010D01*
X648713Y307868D01*
X649415Y308678D01*
X650172Y309435D01*
X650982Y310137D01*
X651840Y310779D01*
X652741Y311358D01*
X653681Y311872D01*
X654656Y312317D01*
X655660Y312691D01*
X656688Y312993D01*
X657735Y313221D01*
X658796Y313374D01*
X659864Y313450D01*
X660936Y313450D01*
X662004Y313374D01*
X663065Y313221D01*
X664112Y312993D01*
X665140Y312691D01*
X666144Y312317D01*
X667119Y311872D01*
X668059Y311358D01*
X668960Y310779D01*
X669818Y310137D01*
X670628Y309435D01*
X671385Y308678D01*
X672087Y307868D01*
X672729Y307010D01*
X673308Y306109D01*
X673822Y305169D01*
X674267Y304194D01*
X674641Y303190D01*
X674943Y302162D01*
X675171Y301115D01*
X675324Y300054D01*
X675400Y298986D01*
X675400Y297914D01*
M02*
